<?xml version="1.0" encoding="UTF-8" standalone="no"?>
<!DOCTYPE svg PUBLIC "-//W3C//DTD SVG 1.1//EN" "http://www.w3.org/Graphics/SVG/1.1/DTD/svg11.dtd">
<svg width="100%" height="100%" viewBox="0 0 1910 3592" version="1.1" xmlns="http://www.w3.org/2000/svg" xmlns:xlink="http://www.w3.org/1999/xlink" xml:space="preserve" xmlns:serif="http://www.serif.com/" style="fill-rule:evenodd;clip-rule:evenodd;stroke-linecap:round;stroke-linejoin:round;stroke-miterlimit:1.5;">
    <path d="M525.2,32.87L525.2,3331.87" style="fill:none;stroke:black;stroke-width:20.83px;"/>
    <path d="M423.2,33.87L523.2,33.87" style="fill:none;stroke:black;stroke-width:20.83px;"/>
    <path d="M421.2,446.87L521.2,446.87" style="fill:none;stroke:black;stroke-width:20.83px;"/>
    <path d="M427.2,850.87L527.2,850.87" style="fill:none;stroke:black;stroke-width:20.83px;"/>
    <path d="M410.2,1254.87L510.2,1254.87" style="fill:none;stroke:black;stroke-width:20.83px;"/>
    <path d="M422.2,2125.87L522.2,2125.87" style="fill:none;stroke:black;stroke-width:20.83px;"/>
    <path d="M423.2,2529.87L523.2,2529.87" style="fill:none;stroke:black;stroke-width:20.83px;"/>
    <path d="M424.2,2934.87L524.2,2934.87" style="fill:none;stroke:black;stroke-width:20.83px;"/>
    <path d="M427.2,3332.87L527.2,3332.87" style="fill:none;stroke:black;stroke-width:20.83px;"/>
    <path d="M1147.2,3470.87L1122.2,3520.87L1097.2,3470.87L1122.2,3495.87L1147.2,3470.87Z"/>
    <path d="M1122.2,3106.87L1122.2,3495.87" style="fill:none;stroke:black;stroke-width:8.33px;"/>
    <path d="M293.2,1657.87L515.2,1657.87" style="fill:none;stroke:black;stroke-width:20.83px;"/>
    <g transform="matrix(121.133764,0,0,121.133764,1911.176877,557.246395)">
    </g>
    <text x="1454.5px" y="557.25px" style="font-family:'Alegreya-SemiBoldItalic', 'Alegreya';font-weight:600;font-style:italic;font-size:121.13px;">T<tspan x="1517.98px " y="557.25px ">i</tspan>mesc<tspan x="1774.54px " y="557.25px ">a</tspan>le</text>
    <g transform="matrix(83.333333,0,0,83.333333,1056.735252,54.5)">
    </g>
    <text x="591.32px" y="54.5px" style="font-family:'AlegreyaSC-Bold', 'Alegreya SC';font-weight:700;font-size:83.33px;">Jesus Christ</text>
    <g transform="matrix(83.333333,0,0,83.333333,819.901919,458.5)">
    </g>
    <text x="592.07px" y="458.5px" style="font-family:'AlegreyaSC-Bold', 'Alegreya SC';font-weight:700;font-size:83.33px;">ad 500</text>
    <g transform="matrix(83.333333,0,0,83.333333,1055.401919,674.5)">
    </g>
    <text x="589.49px" y="674.5px" style="font-family:'Alegreya-SemiBold', 'Alegreya';font-weight:600;font-size:83.33px;">C<tspan x="641.24px " y="674.5px ">h</tspan>ar<tspan x="759.15px " y="674.5px ">l</tspan>emagne</text>
    <g transform="matrix(83.333333,0,0,83.333333,863.151919,1382.5)">
    </g>
    <text x="588.74px" y="1382.5px" style="font-family:'Alegreya-SemiBold', 'Alegreya';font-weight:600;font-size:83.33px;">N<tspan x="647.57px " y="1382.5px ">e</tspan>wton</text>
    <g transform="matrix(58.010649,0,0,58.010649,1029.378177,1635.939082)">
    </g>
    <text x="592.91px" y="1635.94px" style="font-family:'Alegreya-Medium', 'Alegreya';font-weight:500;font-size:58.01px;">A<tspan x="626.73px " y="1635.94px ">n</tspan>glo-<tspan x="751.8px 780.86px 803.25px " y="1635.94px 1635.94px 1635.94px ">Fre</tspan>nc<tspan x="886.38px " y="1635.94px ">h</tspan> W<tspan x="978.91px " y="1635.94px ">a</tspan>r</text>
    <g transform="matrix(58.010649,0,0,58.010649,1059.891778,1698.669311)">
    </g>
    <text x="589.37px" y="1698.67px" style="font-family:'Alegreya-Medium', 'Alegreya';font-weight:500;font-size:58.01px;">R<tspan x="624.23px " y="1698.67px ">u</tspan>sso-G<tspan x="790.72px " y="1698.67px ">e</tspan>rman W<tspan x="1009.42px " y="1698.67px ">a</tspan>r</text>
    <g transform="matrix(58.010649,0,0,58.010649,1068.303323,1753.236613)">
    </g>
    <text x="589.31px" y="1753.24px" style="font-family:'Alegreya-Medium', 'Alegreya';font-weight:500;font-size:58.01px;">E<tspan x="622.67px 654.17px 676.56px 705.91px 724.47px 758.29px " y="1753.24px 1753.24px 1753.24px 1753.24px 1753.24px 1753.24px ">uro-Am</tspan>eric<tspan x="896.88px " y="1753.24px ">a</tspan>n W<tspan x="1017.83px " y="1753.24px ">a</tspan>r</text>
    <g transform="matrix(74.58512,0,0,74.58512,1169.962841,1893.456638)">
    </g>
    <text x="588.57px" y="1893.46px" style="font-family:'Alegreya-Medium', 'Alegreya';font-weight:500;font-size:74.59px;">S<tspan x="627.65px " y="1893.46px ">i</tspan>no<tspan x="727.9px 771.38px " y="1893.46px 1893.46px ">Am</tspan>eric<tspan x="949.56px " y="1893.46px ">a</tspan>n W<tspan x="1105.07px " y="1893.46px ">a</tspan>r</text>
    <g transform="matrix(66.297884,0,0,66.297884,1161.186658,1578.259923)">
    </g>
    <text x="588.9px" y="1578.26px" style="font-family:'AlegreyaSC-Medium', 'Alegreya SC';font-weight:500;font-size:66.3px;">Eur<tspan x="700.81px " y="1578.26px ">o</tspan>pean W<tspan x="953.21px 988.08px 1024.15px 1041.52px " y="1578.26px 1578.26px 1578.26px 1578.26px ">ar, </tspan>1914</text>
    <g transform="matrix(1.373483,0,0,1.373483,-2058.598008,-1453.560997)">
        <text x="1658.56px" y="1088.63px" style="font-family:'Alegreya-Bold', 'Alegreya';font-weight:700;font-size:58.33px;">2000</text>
        <text x="1644.44px" y="1146.96px" style="font-family:'Alegreya-Bold', 'Alegreya';font-weight:700;font-size:58.33px;">years</text>
        <g transform="matrix(58.333333,0,0,58.333333,1774.466667,1205.297526)">
        </g>
        <text x="1687.32px" y="1205.3px" style="font-family:'Alegreya-Bold', 'Alegreya';font-weight:700;font-size:58.33px;">ago</text>
    </g>
    <g transform="matrix(83.333333,0,0,83.333333,288.666667,1716.5)">
    </g>
    <text x="-1.25px" y="1716.5px" style="font-family:'Alegreya-Bold', 'Alegreya';font-weight:700;font-size:83.33px;">2000 AD</text>
    <g transform="matrix(1,0,0,1,-1421.8,2255.869141)">
        <text x="1608.88px" y="1088.63px" style="font-family:'Alegreya-Bold', 'Alegreya';font-weight:700;font-size:83.33px;">2000</text>
        <text x="1588.72px" y="1163.63px" style="font-family:'Alegreya-Bold', 'Alegreya';font-weight:700;font-size:83.33px;">years</text>
        <g transform="matrix(83.333333,0,0,83.333333,1774.466667,1238.630859)">
        </g>
        <text x="1568.47px" y="1238.63px" style="font-family:'Alegreya-Bold', 'Alegreya';font-weight:700;font-size:83.33px;">hence</text>
    </g>
    <g transform="matrix(83.333333,0,0,83.333333,376.666667,462.5)">
    </g>
    <text x="207.33px" y="462.5px" style="font-family:'Alegreya-Bold', 'Alegreya';font-weight:700;font-size:83.33px;">1,500</text>
    <g transform="matrix(83.333333,0,0,83.333333,355.666667,2946.056639)">
    </g>
    <text x="186.33px" y="2946.06px" style="font-family:'Alegreya-Bold', 'Alegreya';font-weight:700;font-size:83.33px;">1,500</text>
    <g transform="matrix(83.333333,0,0,83.333333,368.666667,867.5)">
    </g>
    <text x="193.17px" y="867.5px" style="font-family:'Alegreya-Bold', 'Alegreya';font-weight:700;font-size:83.33px;">1,000</text>
    <g transform="matrix(83.333333,0,0,83.333333,359.666667,2547.5)">
    </g>
    <text x="184.17px" y="2547.5px" style="font-family:'Alegreya-Bold', 'Alegreya';font-weight:700;font-size:83.33px;">1,000</text>
    <g transform="matrix(83.333333,0,0,83.333333,373.666667,1275.5)">
    </g>
    <text x="254.58px" y="1275.5px" style="font-family:'Alegreya-Bold', 'Alegreya';font-weight:700;font-size:83.33px;">500</text>
    <g transform="matrix(83.333333,0,0,83.333333,359.666667,2140.5)">
    </g>
    <text x="240.58px" y="2140.5px" style="font-family:'Alegreya-Bold', 'Alegreya';font-weight:700;font-size:83.33px;">500</text>
    <g transform="matrix(0,-1,1,0,-4688.497526,4788.602474)">
        <g transform="matrix(83.333333,0,0,83.333333,2405.219141,5827.180859)">
        </g>
        <text x="1698.05px" y="5827.18px" style="font-family:'Alegreya-Medium', 'Alegreya';font-weight:500;font-size:83.33px;">A<tspan x="1746.64px " y="5827.18px ">m</tspan>eric<tspan x="1945.72px " y="5827.18px ">a</tspan>nized W<tspan x="2264.55px 2306.72px 2339.39px " y="5827.18px 5827.18px 5827.18px ">orl</tspan>d</text>
    </g>
    <g transform="matrix(79.166667,0,0,79.166667,1367.351919,895.5)">
    </g>
    <text x="588.91px" y="895.5px" style="font-family:'Alegreya-SemiBold', 'Alegreya';font-weight:600;font-size:79.17px;">N<tspan x="644.8px " y="895.5px ">o</tspan>rman C<tspan x="927.26px " y="895.5px ">o</tspan>nquest,<tspan x="1210.92px " y="895.5px "> </tspan>1066</text>
    <g transform="matrix(79.166667,0,0,79.166667,1420.235252,1234.5)">
    </g>
    <text x="593.1px" y="1234.5px" style="font-family:'Alegreya-SemiBold', 'Alegreya';font-weight:600;font-size:79.17px;">A<tspan x="640.13px " y="1234.5px ">m</tspan>eric<tspan x="830.68px " y="1234.5px ">a</tspan> D<tspan x="937.64px " y="1234.5px ">i</tspan>sc<tspan x="1025.59px 1064.94px 1100.24px 1136.5px 1167.61px " y="1234.5px 1234.5px 1234.5px 1234.5px 1234.5px ">overe</tspan>d,<tspan x="1266.65px " y="1234.5px "> </tspan>1492</text>
    <g transform="matrix(1,0,0,1,-1056.243915,882.869141)">
        <text x="1648px" y="1088.63px" style="font-family:'Alegreya-BoldItalic', 'Alegreya';font-weight:700;font-style:italic;font-size:79.17px;">First World State</text>
        <g transform="matrix(79.166667,0,0,79.166667,2471.175,1088.630859)">
        </g>
        <text x="2194.17px" y="1088.63px" style="font-family:'Alegreya-Bold', 'Alegreya';font-weight:700;font-size:79.17px;">founded</text>
    </g>
    <g transform="matrix(79.166667,0,0,79.166667,223.604167,1635.5)">
    </g>
    <text x="30.2px" y="1635.5px" style="font-family:'Alegreya-BoldItalic', 'Alegreya';font-weight:700;font-style:italic;font-size:79.17px;">Today</text>
    <g transform="matrix(75,0,0,75,592.076919,822.5)">
        <path d="M0.29,0.01L0.28,-0L0.29,-0.05C0.3,-0.05 0.32,-0.05 0.33,-0.05C0.34,-0.05 0.34,-0.06 0.35,-0.06C0.35,-0.06 0.35,-0.07 0.35,-0.07C0.35,-0.08 0.35,-0.08 0.35,-0.09C0.35,-0.09 0.35,-0.1 0.35,-0.1L0.33,-0.16C0.32,-0.16 0.31,-0.16 0.29,-0.16L0.25,-0.16C0.24,-0.16 0.23,-0.16 0.21,-0.16C0.2,-0.16 0.18,-0.16 0.17,-0.16L0.15,-0.1C0.15,-0.09 0.15,-0.09 0.15,-0.08C0.15,-0.08 0.15,-0.08 0.15,-0.07C0.15,-0.07 0.15,-0.06 0.16,-0.06C0.16,-0.05 0.17,-0.05 0.19,-0.05L0.22,-0.05L0.23,-0.04L0.22,0C0.22,0 0.21,0 0.2,0C0.19,0 0.17,0 0.15,0C0.14,0 0.12,-0 0.1,-0C0.09,-0 0.07,0 0.06,0C0.04,0 0.03,0 0.02,0C0.01,0 0,0 0,0L0.01,-0.05C0.02,-0.05 0.03,-0.06 0.04,-0.06C0.05,-0.07 0.05,-0.08 0.06,-0.1L0.21,-0.5L0.34,-0.51L0.34,-0.51C0.34,-0.51 0.35,-0.5 0.35,-0.48C0.35,-0.47 0.36,-0.45 0.37,-0.43C0.37,-0.41 0.38,-0.38 0.39,-0.35C0.4,-0.32 0.4,-0.29 0.41,-0.27C0.42,-0.24 0.43,-0.21 0.44,-0.18C0.45,-0.15 0.45,-0.13 0.46,-0.1C0.47,-0.09 0.48,-0.07 0.49,-0.06C0.49,-0.06 0.51,-0.05 0.53,-0.05L0.53,-0.04L0.53,0C0.53,0 0.52,0 0.51,0C0.5,0 0.48,0 0.47,0C0.45,0 0.44,-0 0.42,-0C0.4,-0 0.38,0 0.36,0C0.34,0 0.32,0 0.31,0C0.29,0.01 0.29,0.01 0.29,0.01ZM0.19,-0.22L0.25,-0.22C0.26,-0.22 0.27,-0.22 0.28,-0.22C0.3,-0.22 0.31,-0.23 0.31,-0.23L0.27,-0.4L0.25,-0.4L0.19,-0.22Z" style="fill-rule:nonzero;"/>
    </g>
    <g transform="matrix(75,0,0,75,592.076919,822.5)">
    </g>
    <g transform="matrix(75,0,0,75,632.201919,822.5)">
        <path d="M0.27,0.01C0.27,0.01 0.26,0.01 0.25,0.01C0.24,0 0.22,0 0.2,0C0.18,0 0.16,-0 0.15,-0C0.13,-0 0.12,0 0.1,0C0.09,0 0.07,0 0.06,0.01C0.05,0.01 0.04,0.01 0.04,0.01L0.05,-0.05C0.07,-0.05 0.09,-0.06 0.1,-0.07C0.1,-0.07 0.11,-0.09 0.11,-0.11L0.11,-0.41C0.11,-0.42 0.11,-0.43 0.1,-0.44C0.1,-0.45 0.09,-0.45 0.08,-0.45C0.08,-0.45 0.07,-0.45 0.06,-0.45C0.06,-0.45 0.05,-0.45 0.05,-0.45L0.05,-0.45L0.06,-0.5C0.06,-0.5 0.06,-0.5 0.07,-0.5C0.08,-0.5 0.08,-0.5 0.1,-0.5C0.11,-0.5 0.12,-0.5 0.13,-0.5C0.14,-0.5 0.15,-0.5 0.16,-0.5C0.17,-0.5 0.18,-0.5 0.2,-0.5C0.21,-0.5 0.22,-0.5 0.24,-0.5C0.25,-0.5 0.27,-0.5 0.28,-0.5C0.29,-0.5 0.29,-0.5 0.29,-0.5C0.35,-0.5 0.39,-0.49 0.43,-0.48C0.47,-0.46 0.5,-0.43 0.53,-0.4C0.55,-0.36 0.56,-0.32 0.56,-0.27C0.56,-0.22 0.54,-0.17 0.52,-0.12C0.5,-0.08 0.46,-0.05 0.42,-0.03C0.38,-0 0.33,0.01 0.27,0.01ZM0.25,-0.44C0.24,-0.44 0.23,-0.43 0.23,-0.43C0.22,-0.43 0.22,-0.42 0.22,-0.42C0.22,-0.35 0.22,-0.29 0.21,-0.24C0.21,-0.19 0.21,-0.15 0.21,-0.11C0.21,-0.09 0.22,-0.08 0.23,-0.07C0.24,-0.06 0.25,-0.06 0.28,-0.06C0.33,-0.06 0.37,-0.07 0.39,-0.11C0.42,-0.14 0.43,-0.18 0.43,-0.25C0.43,-0.29 0.42,-0.33 0.41,-0.35C0.4,-0.38 0.38,-0.4 0.35,-0.42C0.32,-0.43 0.29,-0.44 0.25,-0.44Z" style="fill-rule:nonzero;"/>
    </g>
    <g transform="matrix(75,0,0,75,632.201919,822.5)">
    </g>
    <g transform="matrix(75,0,0,75,831.401919,822.5)">
    </g>
    <text x="689.95px" y="822.5px" style="font-family:'Alegreya-SemiBold', 'Alegreya';font-weight:600;font-size:75px;">1000</text>
    <g transform="matrix(75,0,0,75,592.076919,1305.5)">
        <path d="M0.29,0.01L0.28,-0L0.29,-0.05C0.3,-0.05 0.32,-0.05 0.33,-0.05C0.34,-0.05 0.34,-0.06 0.35,-0.06C0.35,-0.06 0.35,-0.07 0.35,-0.07C0.35,-0.08 0.35,-0.08 0.35,-0.09C0.35,-0.09 0.35,-0.1 0.35,-0.1L0.33,-0.16C0.32,-0.16 0.31,-0.16 0.29,-0.16L0.25,-0.16C0.24,-0.16 0.23,-0.16 0.21,-0.16C0.2,-0.16 0.18,-0.16 0.17,-0.16L0.15,-0.1C0.15,-0.09 0.15,-0.09 0.15,-0.08C0.15,-0.08 0.15,-0.08 0.15,-0.07C0.15,-0.07 0.15,-0.06 0.16,-0.06C0.16,-0.05 0.17,-0.05 0.19,-0.05L0.22,-0.05L0.23,-0.04L0.22,0C0.22,0 0.21,0 0.2,0C0.19,0 0.17,0 0.15,0C0.14,0 0.12,-0 0.1,-0C0.09,-0 0.07,0 0.06,0C0.04,0 0.03,0 0.02,0C0.01,0 0,0 0,0L0.01,-0.05C0.02,-0.05 0.03,-0.06 0.04,-0.06C0.05,-0.07 0.05,-0.08 0.06,-0.1L0.21,-0.5L0.34,-0.51L0.34,-0.51C0.34,-0.51 0.35,-0.5 0.35,-0.48C0.35,-0.47 0.36,-0.45 0.37,-0.43C0.37,-0.41 0.38,-0.38 0.39,-0.35C0.4,-0.32 0.4,-0.29 0.41,-0.27C0.42,-0.24 0.43,-0.21 0.44,-0.18C0.45,-0.15 0.45,-0.13 0.46,-0.1C0.47,-0.09 0.48,-0.07 0.49,-0.06C0.49,-0.06 0.51,-0.05 0.53,-0.05L0.53,-0.04L0.53,0C0.53,0 0.52,0 0.51,0C0.5,0 0.48,0 0.47,0C0.45,0 0.44,-0 0.42,-0C0.4,-0 0.38,0 0.36,0C0.34,0 0.32,0 0.31,0C0.29,0.01 0.29,0.01 0.29,0.01ZM0.19,-0.22L0.25,-0.22C0.26,-0.22 0.27,-0.22 0.28,-0.22C0.3,-0.22 0.31,-0.23 0.31,-0.23L0.27,-0.4L0.25,-0.4L0.19,-0.22Z" style="fill-rule:nonzero;"/>
    </g>
    <g transform="matrix(75,0,0,75,592.076919,1305.5)">
    </g>
    <g transform="matrix(75,0,0,75,632.201919,1305.5)">
        <path d="M0.27,0.01C0.27,0.01 0.26,0.01 0.25,0.01C0.24,0 0.22,0 0.2,0C0.18,0 0.16,-0 0.15,-0C0.13,-0 0.12,0 0.1,0C0.09,0 0.07,0 0.06,0.01C0.05,0.01 0.04,0.01 0.04,0.01L0.05,-0.05C0.07,-0.05 0.09,-0.06 0.1,-0.07C0.1,-0.07 0.11,-0.09 0.11,-0.11L0.11,-0.41C0.11,-0.42 0.11,-0.43 0.1,-0.44C0.1,-0.45 0.09,-0.45 0.08,-0.45C0.08,-0.45 0.07,-0.45 0.06,-0.45C0.06,-0.45 0.05,-0.45 0.05,-0.45L0.05,-0.45L0.06,-0.5C0.06,-0.5 0.06,-0.5 0.07,-0.5C0.08,-0.5 0.08,-0.5 0.1,-0.5C0.11,-0.5 0.12,-0.5 0.13,-0.5C0.14,-0.5 0.15,-0.5 0.16,-0.5C0.17,-0.5 0.18,-0.5 0.2,-0.5C0.21,-0.5 0.22,-0.5 0.24,-0.5C0.25,-0.5 0.27,-0.5 0.28,-0.5C0.29,-0.5 0.29,-0.5 0.29,-0.5C0.35,-0.5 0.39,-0.49 0.43,-0.48C0.47,-0.46 0.5,-0.43 0.53,-0.4C0.55,-0.36 0.56,-0.32 0.56,-0.27C0.56,-0.22 0.54,-0.17 0.52,-0.12C0.5,-0.08 0.46,-0.05 0.42,-0.03C0.38,-0 0.33,0.01 0.27,0.01ZM0.25,-0.44C0.24,-0.44 0.23,-0.43 0.23,-0.43C0.22,-0.43 0.22,-0.42 0.22,-0.42C0.22,-0.35 0.22,-0.29 0.21,-0.24C0.21,-0.19 0.21,-0.15 0.21,-0.11C0.21,-0.09 0.22,-0.08 0.23,-0.07C0.24,-0.06 0.25,-0.06 0.28,-0.06C0.33,-0.06 0.37,-0.07 0.39,-0.11C0.42,-0.14 0.43,-0.18 0.43,-0.25C0.43,-0.29 0.42,-0.33 0.41,-0.35C0.4,-0.38 0.38,-0.4 0.35,-0.42C0.32,-0.43 0.29,-0.44 0.25,-0.44Z" style="fill-rule:nonzero;"/>
    </g>
    <g transform="matrix(75,0,0,75,632.201919,1305.5)">
    </g>
    <g transform="matrix(75,0,0,75,825.176919,1305.5)">
    </g>
    <text x="689.95px" y="1305.5px" style="font-family:'Alegreya-SemiBold', 'Alegreya';font-weight:600;font-size:75px;">1500</text>
    <g transform="matrix(75,0,0,75,592.076919,2144.5)">
        <path d="M0.29,0.01L0.28,-0L0.29,-0.05C0.3,-0.05 0.32,-0.05 0.33,-0.05C0.34,-0.05 0.34,-0.06 0.35,-0.06C0.35,-0.06 0.35,-0.07 0.35,-0.07C0.35,-0.08 0.35,-0.08 0.35,-0.09C0.35,-0.09 0.35,-0.1 0.35,-0.1L0.33,-0.16C0.32,-0.16 0.31,-0.16 0.29,-0.16L0.25,-0.16C0.24,-0.16 0.23,-0.16 0.21,-0.16C0.2,-0.16 0.18,-0.16 0.17,-0.16L0.15,-0.1C0.15,-0.09 0.15,-0.09 0.15,-0.08C0.15,-0.08 0.15,-0.08 0.15,-0.07C0.15,-0.07 0.15,-0.06 0.16,-0.06C0.16,-0.05 0.17,-0.05 0.19,-0.05L0.22,-0.05L0.23,-0.04L0.22,0C0.22,0 0.21,0 0.2,0C0.19,0 0.17,0 0.15,0C0.14,0 0.12,-0 0.1,-0C0.09,-0 0.07,0 0.06,0C0.04,0 0.03,0 0.02,0C0.01,0 0,0 0,0L0.01,-0.05C0.02,-0.05 0.03,-0.06 0.04,-0.06C0.05,-0.07 0.05,-0.08 0.06,-0.1L0.21,-0.5L0.34,-0.51L0.34,-0.51C0.34,-0.51 0.35,-0.5 0.35,-0.48C0.35,-0.47 0.36,-0.45 0.37,-0.43C0.37,-0.41 0.38,-0.38 0.39,-0.35C0.4,-0.32 0.4,-0.29 0.41,-0.27C0.42,-0.24 0.43,-0.21 0.44,-0.18C0.45,-0.15 0.45,-0.13 0.46,-0.1C0.47,-0.09 0.48,-0.07 0.49,-0.06C0.49,-0.06 0.51,-0.05 0.53,-0.05L0.53,-0.04L0.53,0C0.53,0 0.52,0 0.51,0C0.5,0 0.48,0 0.47,0C0.45,0 0.44,-0 0.42,-0C0.4,-0 0.38,0 0.36,0C0.34,0 0.32,0 0.31,0C0.29,0.01 0.29,0.01 0.29,0.01ZM0.19,-0.22L0.25,-0.22C0.26,-0.22 0.27,-0.22 0.28,-0.22C0.3,-0.22 0.31,-0.23 0.31,-0.23L0.27,-0.4L0.25,-0.4L0.19,-0.22Z" style="fill-rule:nonzero;"/>
    </g>
    <g transform="matrix(75,0,0,75,592.076919,2144.5)">
    </g>
    <g transform="matrix(75,0,0,75,632.201919,2144.5)">
        <path d="M0.27,0.01C0.27,0.01 0.26,0.01 0.25,0.01C0.24,0 0.22,0 0.2,0C0.18,0 0.16,-0 0.15,-0C0.13,-0 0.12,0 0.1,0C0.09,0 0.07,0 0.06,0.01C0.05,0.01 0.04,0.01 0.04,0.01L0.05,-0.05C0.07,-0.05 0.09,-0.06 0.1,-0.07C0.1,-0.07 0.11,-0.09 0.11,-0.11L0.11,-0.41C0.11,-0.42 0.11,-0.43 0.1,-0.44C0.1,-0.45 0.09,-0.45 0.08,-0.45C0.08,-0.45 0.07,-0.45 0.06,-0.45C0.06,-0.45 0.05,-0.45 0.05,-0.45L0.05,-0.45L0.06,-0.5C0.06,-0.5 0.06,-0.5 0.07,-0.5C0.08,-0.5 0.08,-0.5 0.1,-0.5C0.11,-0.5 0.12,-0.5 0.13,-0.5C0.14,-0.5 0.15,-0.5 0.16,-0.5C0.17,-0.5 0.18,-0.5 0.2,-0.5C0.21,-0.5 0.22,-0.5 0.24,-0.5C0.25,-0.5 0.27,-0.5 0.28,-0.5C0.29,-0.5 0.29,-0.5 0.29,-0.5C0.35,-0.5 0.39,-0.49 0.43,-0.48C0.47,-0.46 0.5,-0.43 0.53,-0.4C0.55,-0.36 0.56,-0.32 0.56,-0.27C0.56,-0.22 0.54,-0.17 0.52,-0.12C0.5,-0.08 0.46,-0.05 0.42,-0.03C0.38,-0 0.33,0.01 0.27,0.01ZM0.25,-0.44C0.24,-0.44 0.23,-0.43 0.23,-0.43C0.22,-0.43 0.22,-0.42 0.22,-0.42C0.22,-0.35 0.22,-0.29 0.21,-0.24C0.21,-0.19 0.21,-0.15 0.21,-0.11C0.21,-0.09 0.22,-0.08 0.23,-0.07C0.24,-0.06 0.25,-0.06 0.28,-0.06C0.33,-0.06 0.37,-0.07 0.39,-0.11C0.42,-0.14 0.43,-0.18 0.43,-0.25C0.43,-0.29 0.42,-0.33 0.41,-0.35C0.4,-0.38 0.38,-0.4 0.35,-0.42C0.32,-0.43 0.29,-0.44 0.25,-0.44Z" style="fill-rule:nonzero;"/>
    </g>
    <g transform="matrix(75,0,0,75,632.201919,2144.5)">
    </g>
    <g transform="matrix(75,0,0,75,834.776919,2144.5)">
    </g>
    <text x="689.95px" y="2144.5px" style="font-family:'Alegreya-SemiBold', 'Alegreya';font-weight:600;font-size:75px;">2500</text>
    <g transform="matrix(75,0,0,75,592.076919,2549.5)">
        <path d="M0.29,0.01L0.28,-0L0.29,-0.05C0.3,-0.05 0.32,-0.05 0.33,-0.05C0.34,-0.05 0.34,-0.06 0.35,-0.06C0.35,-0.06 0.35,-0.07 0.35,-0.07C0.35,-0.08 0.35,-0.08 0.35,-0.09C0.35,-0.09 0.35,-0.1 0.35,-0.1L0.33,-0.16C0.32,-0.16 0.31,-0.16 0.29,-0.16L0.25,-0.16C0.24,-0.16 0.23,-0.16 0.21,-0.16C0.2,-0.16 0.18,-0.16 0.17,-0.16L0.15,-0.1C0.15,-0.09 0.15,-0.09 0.15,-0.08C0.15,-0.08 0.15,-0.08 0.15,-0.07C0.15,-0.07 0.15,-0.06 0.16,-0.06C0.16,-0.05 0.17,-0.05 0.19,-0.05L0.22,-0.05L0.23,-0.04L0.22,0C0.22,0 0.21,0 0.2,0C0.19,0 0.17,0 0.15,0C0.14,0 0.12,-0 0.1,-0C0.09,-0 0.07,0 0.06,0C0.04,0 0.03,0 0.02,0C0.01,0 0,0 0,0L0.01,-0.05C0.02,-0.05 0.03,-0.06 0.04,-0.06C0.05,-0.07 0.05,-0.08 0.06,-0.1L0.21,-0.5L0.34,-0.51L0.34,-0.51C0.34,-0.51 0.35,-0.5 0.35,-0.48C0.35,-0.47 0.36,-0.45 0.37,-0.43C0.37,-0.41 0.38,-0.38 0.39,-0.35C0.4,-0.32 0.4,-0.29 0.41,-0.27C0.42,-0.24 0.43,-0.21 0.44,-0.18C0.45,-0.15 0.45,-0.13 0.46,-0.1C0.47,-0.09 0.48,-0.07 0.49,-0.06C0.49,-0.06 0.51,-0.05 0.53,-0.05L0.53,-0.04L0.53,0C0.53,0 0.52,0 0.51,0C0.5,0 0.48,0 0.47,0C0.45,0 0.44,-0 0.42,-0C0.4,-0 0.38,0 0.36,0C0.34,0 0.32,0 0.31,0C0.29,0.01 0.29,0.01 0.29,0.01ZM0.19,-0.22L0.25,-0.22C0.26,-0.22 0.27,-0.22 0.28,-0.22C0.3,-0.22 0.31,-0.23 0.31,-0.23L0.27,-0.4L0.25,-0.4L0.19,-0.22Z" style="fill-rule:nonzero;"/>
    </g>
    <g transform="matrix(75,0,0,75,592.076919,2549.5)">
    </g>
    <g transform="matrix(75,0,0,75,632.201919,2549.5)">
        <path d="M0.27,0.01C0.27,0.01 0.26,0.01 0.25,0.01C0.24,0 0.22,0 0.2,0C0.18,0 0.16,-0 0.15,-0C0.13,-0 0.12,0 0.1,0C0.09,0 0.07,0 0.06,0.01C0.05,0.01 0.04,0.01 0.04,0.01L0.05,-0.05C0.07,-0.05 0.09,-0.06 0.1,-0.07C0.1,-0.07 0.11,-0.09 0.11,-0.11L0.11,-0.41C0.11,-0.42 0.11,-0.43 0.1,-0.44C0.1,-0.45 0.09,-0.45 0.08,-0.45C0.08,-0.45 0.07,-0.45 0.06,-0.45C0.06,-0.45 0.05,-0.45 0.05,-0.45L0.05,-0.45L0.06,-0.5C0.06,-0.5 0.06,-0.5 0.07,-0.5C0.08,-0.5 0.08,-0.5 0.1,-0.5C0.11,-0.5 0.12,-0.5 0.13,-0.5C0.14,-0.5 0.15,-0.5 0.16,-0.5C0.17,-0.5 0.18,-0.5 0.2,-0.5C0.21,-0.5 0.22,-0.5 0.24,-0.5C0.25,-0.5 0.27,-0.5 0.28,-0.5C0.29,-0.5 0.29,-0.5 0.29,-0.5C0.35,-0.5 0.39,-0.49 0.43,-0.48C0.47,-0.46 0.5,-0.43 0.53,-0.4C0.55,-0.36 0.56,-0.32 0.56,-0.27C0.56,-0.22 0.54,-0.17 0.52,-0.12C0.5,-0.08 0.46,-0.05 0.42,-0.03C0.38,-0 0.33,0.01 0.27,0.01ZM0.25,-0.44C0.24,-0.44 0.23,-0.43 0.23,-0.43C0.22,-0.43 0.22,-0.42 0.22,-0.42C0.22,-0.35 0.22,-0.29 0.21,-0.24C0.21,-0.19 0.21,-0.15 0.21,-0.11C0.21,-0.09 0.22,-0.08 0.23,-0.07C0.24,-0.06 0.25,-0.06 0.28,-0.06C0.33,-0.06 0.37,-0.07 0.39,-0.11C0.42,-0.14 0.43,-0.18 0.43,-0.25C0.43,-0.29 0.42,-0.33 0.41,-0.35C0.4,-0.38 0.38,-0.4 0.35,-0.42C0.32,-0.43 0.29,-0.44 0.25,-0.44Z" style="fill-rule:nonzero;"/>
    </g>
    <g transform="matrix(75,0,0,75,632.201919,2549.5)">
    </g>
    <g transform="matrix(75,0,0,75,836.951919,2549.5)">
    </g>
    <text x="689.95px" y="2549.5px" style="font-family:'Alegreya-SemiBold', 'Alegreya';font-weight:600;font-size:75px;">3000</text>
    <g transform="matrix(75,0,0,75,592.076919,2955.5)">
        <path d="M0.29,0.01L0.28,-0L0.29,-0.05C0.3,-0.05 0.32,-0.05 0.33,-0.05C0.34,-0.05 0.34,-0.06 0.35,-0.06C0.35,-0.06 0.35,-0.07 0.35,-0.07C0.35,-0.08 0.35,-0.08 0.35,-0.09C0.35,-0.09 0.35,-0.1 0.35,-0.1L0.33,-0.16C0.32,-0.16 0.31,-0.16 0.29,-0.16L0.25,-0.16C0.24,-0.16 0.23,-0.16 0.21,-0.16C0.2,-0.16 0.18,-0.16 0.17,-0.16L0.15,-0.1C0.15,-0.09 0.15,-0.09 0.15,-0.08C0.15,-0.08 0.15,-0.08 0.15,-0.07C0.15,-0.07 0.15,-0.06 0.16,-0.06C0.16,-0.05 0.17,-0.05 0.19,-0.05L0.22,-0.05L0.23,-0.04L0.22,0C0.22,0 0.21,0 0.2,0C0.19,0 0.17,0 0.15,0C0.14,0 0.12,-0 0.1,-0C0.09,-0 0.07,0 0.06,0C0.04,0 0.03,0 0.02,0C0.01,0 0,0 0,0L0.01,-0.05C0.02,-0.05 0.03,-0.06 0.04,-0.06C0.05,-0.07 0.05,-0.08 0.06,-0.1L0.21,-0.5L0.34,-0.51L0.34,-0.51C0.34,-0.51 0.35,-0.5 0.35,-0.48C0.35,-0.47 0.36,-0.45 0.37,-0.43C0.37,-0.41 0.38,-0.38 0.39,-0.35C0.4,-0.32 0.4,-0.29 0.41,-0.27C0.42,-0.24 0.43,-0.21 0.44,-0.18C0.45,-0.15 0.45,-0.13 0.46,-0.1C0.47,-0.09 0.48,-0.07 0.49,-0.06C0.49,-0.06 0.51,-0.05 0.53,-0.05L0.53,-0.04L0.53,0C0.53,0 0.52,0 0.51,0C0.5,0 0.48,0 0.47,0C0.45,0 0.44,-0 0.42,-0C0.4,-0 0.38,0 0.36,0C0.34,0 0.32,0 0.31,0C0.29,0.01 0.29,0.01 0.29,0.01ZM0.19,-0.22L0.25,-0.22C0.26,-0.22 0.27,-0.22 0.28,-0.22C0.3,-0.22 0.31,-0.23 0.31,-0.23L0.27,-0.4L0.25,-0.4L0.19,-0.22Z" style="fill-rule:nonzero;"/>
    </g>
    <g transform="matrix(75,0,0,75,592.076919,2955.5)">
    </g>
    <g transform="matrix(75,0,0,75,632.201919,2955.5)">
        <path d="M0.27,0.01C0.27,0.01 0.26,0.01 0.25,0.01C0.24,0 0.22,0 0.2,0C0.18,0 0.16,-0 0.15,-0C0.13,-0 0.12,0 0.1,0C0.09,0 0.07,0 0.06,0.01C0.05,0.01 0.04,0.01 0.04,0.01L0.05,-0.05C0.07,-0.05 0.09,-0.06 0.1,-0.07C0.1,-0.07 0.11,-0.09 0.11,-0.11L0.11,-0.41C0.11,-0.42 0.11,-0.43 0.1,-0.44C0.1,-0.45 0.09,-0.45 0.08,-0.45C0.08,-0.45 0.07,-0.45 0.06,-0.45C0.06,-0.45 0.05,-0.45 0.05,-0.45L0.05,-0.45L0.06,-0.5C0.06,-0.5 0.06,-0.5 0.07,-0.5C0.08,-0.5 0.08,-0.5 0.1,-0.5C0.11,-0.5 0.12,-0.5 0.13,-0.5C0.14,-0.5 0.15,-0.5 0.16,-0.5C0.17,-0.5 0.18,-0.5 0.2,-0.5C0.21,-0.5 0.22,-0.5 0.24,-0.5C0.25,-0.5 0.27,-0.5 0.28,-0.5C0.29,-0.5 0.29,-0.5 0.29,-0.5C0.35,-0.5 0.39,-0.49 0.43,-0.48C0.47,-0.46 0.5,-0.43 0.53,-0.4C0.55,-0.36 0.56,-0.32 0.56,-0.27C0.56,-0.22 0.54,-0.17 0.52,-0.12C0.5,-0.08 0.46,-0.05 0.42,-0.03C0.38,-0 0.33,0.01 0.27,0.01ZM0.25,-0.44C0.24,-0.44 0.23,-0.43 0.23,-0.43C0.22,-0.43 0.22,-0.42 0.22,-0.42C0.22,-0.35 0.22,-0.29 0.21,-0.24C0.21,-0.19 0.21,-0.15 0.21,-0.11C0.21,-0.09 0.22,-0.08 0.23,-0.07C0.24,-0.06 0.25,-0.06 0.28,-0.06C0.33,-0.06 0.37,-0.07 0.39,-0.11C0.42,-0.14 0.43,-0.18 0.43,-0.25C0.43,-0.29 0.42,-0.33 0.41,-0.35C0.4,-0.38 0.38,-0.4 0.35,-0.42C0.32,-0.43 0.29,-0.44 0.25,-0.44Z" style="fill-rule:nonzero;"/>
    </g>
    <g transform="matrix(75,0,0,75,632.201919,2955.5)">
    </g>
    <g transform="matrix(75,0,0,75,830.726919,2955.5)">
    </g>
    <text x="689.95px" y="2955.5px" style="font-family:'Alegreya-SemiBold', 'Alegreya';font-weight:600;font-size:75px;">3500</text>
    <g transform="matrix(75,0,0,75,592.076919,3346.5)">
        <path d="M0.29,0.01L0.28,-0L0.29,-0.05C0.3,-0.05 0.32,-0.05 0.33,-0.05C0.34,-0.05 0.34,-0.06 0.35,-0.06C0.35,-0.06 0.35,-0.07 0.35,-0.07C0.35,-0.08 0.35,-0.08 0.35,-0.09C0.35,-0.09 0.35,-0.1 0.35,-0.1L0.33,-0.16C0.32,-0.16 0.31,-0.16 0.29,-0.16L0.25,-0.16C0.24,-0.16 0.23,-0.16 0.21,-0.16C0.2,-0.16 0.18,-0.16 0.17,-0.16L0.15,-0.1C0.15,-0.09 0.15,-0.09 0.15,-0.08C0.15,-0.08 0.15,-0.08 0.15,-0.07C0.15,-0.07 0.15,-0.06 0.16,-0.06C0.16,-0.05 0.17,-0.05 0.19,-0.05L0.22,-0.05L0.23,-0.04L0.22,0C0.22,0 0.21,0 0.2,0C0.19,0 0.17,0 0.15,0C0.14,0 0.12,-0 0.1,-0C0.09,-0 0.07,0 0.06,0C0.04,0 0.03,0 0.02,0C0.01,0 0,0 0,0L0.01,-0.05C0.02,-0.05 0.03,-0.06 0.04,-0.06C0.05,-0.07 0.05,-0.08 0.06,-0.1L0.21,-0.5L0.34,-0.51L0.34,-0.51C0.34,-0.51 0.35,-0.5 0.35,-0.48C0.35,-0.47 0.36,-0.45 0.37,-0.43C0.37,-0.41 0.38,-0.38 0.39,-0.35C0.4,-0.32 0.4,-0.29 0.41,-0.27C0.42,-0.24 0.43,-0.21 0.44,-0.18C0.45,-0.15 0.45,-0.13 0.46,-0.1C0.47,-0.09 0.48,-0.07 0.49,-0.06C0.49,-0.06 0.51,-0.05 0.53,-0.05L0.53,-0.04L0.53,0C0.53,0 0.52,0 0.51,0C0.5,0 0.48,0 0.47,0C0.45,0 0.44,-0 0.42,-0C0.4,-0 0.38,0 0.36,0C0.34,0 0.32,0 0.31,0C0.29,0.01 0.29,0.01 0.29,0.01ZM0.19,-0.22L0.25,-0.22C0.26,-0.22 0.27,-0.22 0.28,-0.22C0.3,-0.22 0.31,-0.23 0.31,-0.23L0.27,-0.4L0.25,-0.4L0.19,-0.22Z" style="fill-rule:nonzero;"/>
    </g>
    <g transform="matrix(75,0,0,75,592.076919,3346.5)">
    </g>
    <g transform="matrix(75,0,0,75,632.201919,3346.5)">
        <path d="M0.27,0.01C0.27,0.01 0.26,0.01 0.25,0.01C0.24,0 0.22,0 0.2,0C0.18,0 0.16,-0 0.15,-0C0.13,-0 0.12,0 0.1,0C0.09,0 0.07,0 0.06,0.01C0.05,0.01 0.04,0.01 0.04,0.01L0.05,-0.05C0.07,-0.05 0.09,-0.06 0.1,-0.07C0.1,-0.07 0.11,-0.09 0.11,-0.11L0.11,-0.41C0.11,-0.42 0.11,-0.43 0.1,-0.44C0.1,-0.45 0.09,-0.45 0.08,-0.45C0.08,-0.45 0.07,-0.45 0.06,-0.45C0.06,-0.45 0.05,-0.45 0.05,-0.45L0.05,-0.45L0.06,-0.5C0.06,-0.5 0.06,-0.5 0.07,-0.5C0.08,-0.5 0.08,-0.5 0.1,-0.5C0.11,-0.5 0.12,-0.5 0.13,-0.5C0.14,-0.5 0.15,-0.5 0.16,-0.5C0.17,-0.5 0.18,-0.5 0.2,-0.5C0.21,-0.5 0.22,-0.5 0.24,-0.5C0.25,-0.5 0.27,-0.5 0.28,-0.5C0.29,-0.5 0.29,-0.5 0.29,-0.5C0.35,-0.5 0.39,-0.49 0.43,-0.48C0.47,-0.46 0.5,-0.43 0.53,-0.4C0.55,-0.36 0.56,-0.32 0.56,-0.27C0.56,-0.22 0.54,-0.17 0.52,-0.12C0.5,-0.08 0.46,-0.05 0.42,-0.03C0.38,-0 0.33,0.01 0.27,0.01ZM0.25,-0.44C0.24,-0.44 0.23,-0.43 0.23,-0.43C0.22,-0.43 0.22,-0.42 0.22,-0.42C0.22,-0.35 0.22,-0.29 0.21,-0.24C0.21,-0.19 0.21,-0.15 0.21,-0.11C0.21,-0.09 0.22,-0.08 0.23,-0.07C0.24,-0.06 0.25,-0.06 0.28,-0.06C0.33,-0.06 0.37,-0.07 0.39,-0.11C0.42,-0.14 0.43,-0.18 0.43,-0.25C0.43,-0.29 0.42,-0.33 0.41,-0.35C0.4,-0.38 0.38,-0.4 0.35,-0.42C0.32,-0.43 0.29,-0.44 0.25,-0.44Z" style="fill-rule:nonzero;"/>
    </g>
    <g transform="matrix(75,0,0,75,632.201919,3346.5)">
    </g>
    <g transform="matrix(75,0,0,75,839.801919,3346.5)">
    </g>
    <text x="689.95px" y="3346.5px" style="font-family:'Alegreya-SemiBold', 'Alegreya';font-weight:600;font-size:75px;">4000</text>
    <g transform="matrix(133.333333,0,0,133.333333,1729.883333,685.5)">
    </g>
    <text x="1682.82px" y="685.5px" style="font-family:'AlegreyaSC-BoldItalic', 'Alegreya SC';font-weight:700;font-style:italic;font-size:133.33px;">1</text>
</svg>
