<?xml version="1.0" encoding="UTF-8" standalone="no"?>
<!DOCTYPE svg PUBLIC "-//W3C//DTD SVG 1.1//EN" "http://www.w3.org/Graphics/SVG/1.1/DTD/svg11.dtd">
<svg width="100%" height="100%" viewBox="0 0 2092 4052" version="1.1" xmlns="http://www.w3.org/2000/svg" xmlns:xlink="http://www.w3.org/1999/xlink" xml:space="preserve" xmlns:serif="http://www.serif.com/" style="fill-rule:evenodd;clip-rule:evenodd;stroke-linecap:round;stroke-linejoin:round;stroke-miterlimit:1.5;">
    <g transform="matrix(121.133764,0,0,121.133764,1981.976877,1194.377254)">
    </g>
    <text x="1525.303px" y="1194.377px" style="font-family:'Alegreya-SemiBoldItalic', 'Alegreya';font-weight:600;font-style:italic;font-size:121.134px;">T<tspan x="1588.777px " y="1194.377px ">i</tspan>mesc<tspan x="1845.338px " y="1194.377px ">a</tspan>le</text>
    <g transform="matrix(133.333333,0,0,133.333333,1810.35,1315.630859)">
    </g>
    <text x="1754.617px" y="1315.631px" style="font-family:'AlegreyaSC-BoldItalic', 'Alegreya SC';font-weight:700;font-style:italic;font-size:133.333px;">3</text>
    <g transform="matrix(1,0,0,1,-1367,-634)">
        <text x="1516.307px" y="1088.631px" style="font-family:'Alegreya-Bold', 'Alegreya';font-weight:700;font-size:80px;">20,000,000</text>
        <g transform="matrix(80,0,0,80,1828.066667,1163.630859)">
        </g>
        <text x="1516.307px" y="1163.631px" style="font-family:'Alegreya-Bold', 'Alegreya';font-weight:700;font-size:80px;">years ago</text>
    </g>
    <g transform="matrix(1,0,0,1,-1409,2780)">
        <text x="1552.695px" y="1088.631px" style="font-family:'Alegreya-Bold', 'Alegreya';font-weight:700;font-size:80px;">20,000,000</text>
        <g transform="matrix(80,0,0,80,1942.695,1163.630859)">
        </g>
        <text x="1552.695px" y="1163.631px" style="font-family:'Alegreya-Bold', 'Alegreya';font-weight:700;font-size:80px;">years hence</text>
    </g>
    <g transform="matrix(83.333333,0,0,83.333333,420.466667,2252.630859)">
    </g>
    <text x="130.55px" y="2252.631px" style="font-family:'Alegreya-Bold', 'Alegreya';font-weight:700;font-size:83.333px;">2000 AD</text>
    <g transform="matrix(79.166667,0,0,79.166667,382.404167,2173.630859)">
    </g>
    <text x="189px" y="2173.631px" style="font-family:'Alegreya-BoldItalic', 'Alegreya';font-weight:700;font-style:italic;font-size:79.167px;">Today</text>
    <g transform="matrix(80,0,0,80,488.751667,955.630859)">
    </g>
    <text x="146.832px" y="955.631px" style="font-family:'Alegreya-Bold', 'Alegreya';font-weight:700;font-size:80px;">15,000,000</text>
    <g transform="matrix(80,0,0,80,497.751667,3447.187498)">
    </g>
    <text x="155.832px" y="3447.187px" style="font-family:'Alegreya-Bold', 'Alegreya';font-weight:700;font-size:80px;">15,000,000</text>
    <g transform="matrix(80,0,0,80,492.386667,1350.630859)">
    </g>
    <text x="144.547px" y="1350.631px" style="font-family:'Alegreya-Bold', 'Alegreya';font-weight:700;font-size:80px;">10,000,000</text>
    <g transform="matrix(80,0,0,80,498.386667,3044.630859)">
    </g>
    <text x="150.547px" y="3044.631px" style="font-family:'Alegreya-Bold', 'Alegreya';font-weight:700;font-size:80px;">10,000,000</text>
    <g transform="matrix(80,0,0,80,490.876667,1764.630859)">
    </g>
    <text x="178.157px" y="1764.631px" style="font-family:'Alegreya-Bold', 'Alegreya';font-weight:700;font-size:80px;">5,000,000</text>
    <g transform="matrix(80,0,0,80,495.876667,2627.630859)">
    </g>
    <text x="183.157px" y="2627.631px" style="font-family:'Alegreya-Bold', 'Alegreya';font-weight:700;font-size:80px;">5,000,000</text>
    <g transform="matrix(83.333333,0,0,83.333333,1375.9125,461.630859)">
    </g>
    <text x="763.746px" y="461.631px" style="font-family:'AlegreyaSC-Medium', 'Alegreya SC';font-weight:500;font-size:83.333px;">F<tspan x="811.329px 842.162px 891.329px 933.996px 978.329px 998.079px 1072.579px 1120.579px 1184.162px 1247.746px 1295.746px 1337.412px " y="461.631px 461.631px 461.631px 461.631px 461.631px 461.631px 461.631px 461.631px 461.631px 461.631px 461.631px 461.631px ">irst Mammals</tspan></text>
    <g transform="matrix(1,0,0,1,-1189.40625,1950)">
        <text x="1950.823px" y="1088.631px" style="font-family:'Alegreya-SemiBold', 'Alegreya';font-weight:600;font-size:70.833px;">R<tspan x="1995.165px " y="1088.631px ">i</tspan>se of the</text>
        <text x="2269.573px" y="1088.631px" style="font-family:'Alegreya-SemiBoldItalic', 'Alegreya';font-weight:600;font-style:italic;font-size:70.833px;">S<tspan x="2304.99px 2332.048px 2356.485px " y="1088.631px 1088.631px 1088.631px ">eco</tspan>nd M<tspan x="2524.856px " y="1088.631px ">e</tspan>n</text>
        <text x="1950.823px" y="1163.631px" style="font-family:'Alegreya-SemiBold', 'Alegreya';font-weight:600;font-size:70.833px;">M<tspan x="2009.827px " y="1163.631px ">a</tspan>rtian W<tspan x="2264.756px " y="1163.631px ">a</tspan>rs</text>
        <g transform="matrix(70.833333,0,0,70.833333,2806.064583,1238.630859)">
        </g>
        <text x="1950.823px" y="1238.631px" style="font-family:'AlegreyaSC-Medium', 'Alegreya SC';font-weight:500;font-size:70.833px;">T<tspan x="1993.748px 2042.34px 2082.006px 2098.794px 2145.331px 2188.894px 2215.102px 2262.348px 2279.135px 2323.69px 2359.319px 2376.106px 2419.031px 2477.469px 2522.023px 2538.81px 2607.235px 2651.79px 2693.581px 2727.865px 2773.34px " y="1238.631px 1238.631px 1238.631px 1238.631px 1238.631px 1238.631px 1238.631px 1238.631px 1238.631px 1238.631px 1238.631px 1238.631px 1238.631px 1238.631px 1238.631px 1238.631px 1238.631px 1238.631px 1238.631px 1238.631px 1238.631px ">he Ruin of Two Worlds</tspan></text>
    </g>
    <g transform="matrix(1.237673,0,0,1.237673,-1286.337225,738.214077)">
        <text x="1648px" y="1088.631px" style="font-family:'Alegreya-SemiBoldItalic', 'Alegreya';font-weight:600;font-style:italic;font-size:58.333px;">P<tspan x="1679.792px " y="1088.631px ">i</tspan>thec<tspan x="1785.083px " y="1088.631px ">a</tspan>ntr<tspan x="1881.567px " y="1088.631px ">o</tspan>pus er<tspan x="2038.425px " y="1088.631px ">e</tspan>ctus</text>
        <text x="1648px" y="1146.964px" style="font-family:'Alegreya-SemiBold', 'Alegreya';font-weight:600;font-size:58.333px;">P<tspan x="1680.025px " y="1146.964px ">a</tspan>laeolithic</text>
        <g transform="matrix(58.333333,0,0,58.333333,1938.966667,1205.297526)">
        </g>
        <text x="1648px" y="1205.298px" style="font-family:'AlegreyaSC-Medium', 'Alegreya SC';font-weight:500;font-size:58.333px;">P<tspan x="1681.95px 1713.858px 1743.2px 1776.158px 1811.8px 1848.492px 1887.4px 1908.283px " y="1205.298px 1205.298px 1205.298px 1205.298px 1205.298px 1205.298px 1205.298px 1205.298px ">atagonia</tspan></text>
    </g>
    <path d="M660,428L660,3859" style="fill:none;stroke:black;stroke-width:20.83px;"/>
    <path d="M558,429L658,429" style="fill:none;stroke:black;stroke-width:20.83px;"/>
    <path d="M556,939L656,939" style="fill:none;stroke:black;stroke-width:20.83px;"/>
    <path d="M562,1340L662,1340" style="fill:none;stroke:black;stroke-width:20.83px;"/>
    <path d="M546,1747L646,1747" style="fill:none;stroke:black;stroke-width:20.83px;"/>
    <path d="M557,2609L657,2609" style="fill:none;stroke:black;stroke-width:20.83px;"/>
    <path d="M558,3027L658,3027" style="fill:none;stroke:black;stroke-width:20.83px;"/>
    <path d="M559,3434L659,3434" style="fill:none;stroke:black;stroke-width:20.83px;"/>
    <path d="M561,3858L661,3858" style="fill:none;stroke:black;stroke-width:20.83px;"/>
    <path d="M1017,3931L992,3981L967,3931L992,3956L1017,3931Z"/>
    <path d="M992,3834L992,3956" style="fill:none;stroke:black;stroke-width:8.33px;"/>
    <path d="M428,2195L650,2195" style="fill:none;stroke:black;stroke-width:20.83px;"/>
    <g transform="matrix(1,0,0,1,-197,349)">
        <text x="1648px" y="1088.631px" style="font-family:'Alegreya-SemiBold', 'Alegreya';font-weight:600;font-size:79.167px;">O<tspan x="1701.596px " y="1088.631px ">n</tspan>e hundr<tspan x="2000.054px " y="1088.631px ">e</tspan>d times</text>
        <g transform="matrix(79.166667,0,0,79.166667,2270.329167,1163.630859)">
        </g>
        <text x="1648px" y="1163.631px" style="font-family:'Alegreya-SemiBold', 'Alegreya';font-weight:600;font-size:79.167px;">the pr<tspan x="1841.008px 1877.267px 1910.042px " y="1163.631px 1163.631px 1163.631px ">ece</tspan>ding sc<tspan x="2175.804px " y="1163.631px ">a</tspan>le</text>
    </g>
    <g transform="matrix(0,-1,1,0,-71.770443,4444.157943)">
        <text x="1616.831px" y="1088.631px" style="font-family:'Alegreya-SemiBold', 'Alegreya';font-weight:600;font-size:91.667px;">F<tspan x="1663.215px " y="1088.631px ">i</tspan>rst M<tspan x="1886.606px " y="1088.631px ">e</tspan>n in</text>
        <g transform="matrix(91.666667,0,0,91.666667,1980.564583,1163.630859)">
        </g>
        <text x="1710.24px" y="1163.631px" style="font-family:'Alegreya-SemiBold', 'Alegreya';font-weight:600;font-size:91.667px;">E<tspan x="1762.948px 1801.998px " y="1163.631px 1163.631px ">cl</tspan>ipse</text>
    </g>
    <g transform="matrix(0,-1,1,0,-65.770443,5403.157943)">
        <text x="1568.202px" y="1088.631px" style="font-family:'Alegreya-SemiBold', 'Alegreya';font-weight:600;font-size:91.667px;">S<tspan x="1615.869px 1657.852px 1695.802px " y="1088.631px 1088.631px 1088.631px ">eco</tspan>nd M<tspan x="1935.235px " y="1088.631px ">e</tspan>n in</text>
        <g transform="matrix(91.666667,0,0,91.666667,1997.064583,1163.630859)">
        </g>
        <text x="1726.74px" y="1163.631px" style="font-family:'Alegreya-SemiBold', 'Alegreya';font-weight:600;font-size:91.667px;">E<tspan x="1779.448px 1818.498px " y="1163.631px 1163.631px ">cl</tspan>ipse</text>
    </g>
    <g transform="matrix(1,0,0,1,-212,529)">
        <text x="1634.898px" y="1088.631px" style="font-family:'Alegreya-SemiBold', 'Alegreya';font-weight:600;font-size:79.167px;">D<tspan x="1689.76px " y="1088.631px ">o</tspan>ubtless e<tspan x="2010.702px " y="1088.631px ">x</tspan>tr<tspan x="2106.81px " y="1088.631px ">e</tspan>me<tspan x="2245.352px " y="1088.631px ">l</tspan>y</text>
        <g transform="matrix(79.166667,0,0,79.166667,2141.64375,1163.630859)">
        </g>
        <text x="1795.369px" y="1163.631px" style="font-family:'Alegreya-SemiBold', 'Alegreya';font-weight:600;font-size:79.167px;">inac<tspan x="1933.119px " y="1163.631px ">c</tspan>ur<tspan x="2041.34px " y="1163.631px ">a</tspan>te</text>
    </g>
</svg>
