<?xml version="1.0" encoding="UTF-8" standalone="no"?>
<!DOCTYPE svg PUBLIC "-//W3C//DTD SVG 1.1//EN" "http://www.w3.org/Graphics/SVG/1.1/DTD/svg11.dtd">
<svg width="100%" height="100%" viewBox="0 0 2401 3533" version="1.1" xmlns="http://www.w3.org/2000/svg" xmlns:xlink="http://www.w3.org/1999/xlink" xml:space="preserve" xmlns:serif="http://www.serif.com/" style="fill-rule:evenodd;clip-rule:evenodd;stroke-linecap:round;stroke-linejoin:round;stroke-miterlimit:1.5;">
    <g transform="matrix(121.133764,0,0,121.133764,1734.344377,489.329728)">
    </g>
    <text x="1277.67px" y="489.33px" style="font-family:'Alegreya-SemiBoldItalic', 'Alegreya';font-weight:600;font-style:italic;font-size:121.134px;">T<tspan x="1341.144px " y="489.33px ">i</tspan>mesc<tspan x="1597.705px " y="489.33px ">a</tspan>le</text>
    <g transform="matrix(133.333333,0,0,133.333333,1583.5175,598.583333)">
    </g>
    <text x="1522.984px" y="598.583px" style="font-family:'AlegreyaSC-BoldItalic', 'Alegreya SC';font-weight:700;font-style:italic;font-size:133.333px;">4</text>
    <g transform="matrix(121.133764,0,0,121.133764,2046.344377,1479.329728)">
    </g>
    <text x="1589.67px" y="1479.33px" style="font-family:'Alegreya-SemiBoldItalic', 'Alegreya';font-weight:600;font-style:italic;font-size:121.134px;">T<tspan x="1653.144px " y="1479.33px ">i</tspan>mesc<tspan x="1909.705px " y="1479.33px ">a</tspan>le</text>
    <g transform="matrix(133.333333,0,0,133.333333,1889.9175,1588.583333)">
    </g>
    <text x="1834.984px" y="1588.583px" style="font-family:'AlegreyaSC-BoldItalic', 'Alegreya SC';font-weight:700;font-style:italic;font-size:133.333px;">5</text>
    <g transform="matrix(0.768355,0,0,0.768355,-1117.109821,-800.322852)">
        <text x="1515.298px" y="1088.631px" style="font-family:'Alegreya-Bold', 'Alegreya';font-weight:700;font-size:80px;">2,000,</text>
        <text x="1712.338px" y="1088.631px" style="font-family:'Alegreya-Bold', 'Alegreya';font-weight:700;font-size:81.343px;">000</text>
        <text x="1834.596px" y="1088.631px" style="font-family:'Alegreya-Bold', 'Alegreya';font-weight:700;font-size:80px;">,000</text>
        <g transform="matrix(80,0,0,80,1900.466667,1163.630859)">
        </g>
        <text x="1588.707px" y="1163.631px" style="font-family:'Alegreya-Bold', 'Alegreya';font-weight:700;font-size:80px;">years ago</text>
    </g>
    <g transform="matrix(1,0,0,1,-1553.6325,2370.952474)">
        <text x="1552.695px" y="1088.631px" style="font-family:'Alegreya-Bold', 'Alegreya';font-weight:700;font-size:62.5px;">2,000,000,000</text>
        <g transform="matrix(62.5,0,0,62.5,1883.3825,1146.964193)">
        </g>
        <text x="1578.695px" y="1146.964px" style="font-family:'Alegreya-Bold', 'Alegreya';font-weight:700;font-size:62.5px;">years hence</text>
    </g>
    <g transform="matrix(52.299735,0,0,52.299735,310.561789,1778.318394)">
    </g>
    <text x="128.611px" y="1778.318px" style="font-family:'Alegreya-Bold', 'Alegreya';font-weight:700;font-size:52.3px;">2000 AD</text>
    <g transform="matrix(70.304561,0,0,70.304561,302.662131,1726.051961)">
    </g>
    <text x="130.908px" y="1726.052px" style="font-family:'Alegreya-BoldItalic', 'Alegreya';font-weight:700;font-style:italic;font-size:70.305px;">Today</text>
    <g transform="matrix(52.299735,0,0,52.299735,1670.561789,3039.318394)">
    </g>
    <text x="1488.611px" y="3039.318px" style="font-family:'Alegreya-Bold', 'Alegreya';font-weight:700;font-size:52.3px;">2000 AD</text>
    <g transform="matrix(0.627597,0,0,0.627597,578.912152,1384.097128)">
        <text x="1121.967px" y="1088.631px" style="font-family:'Alegreya-Bold', 'Alegreya';font-weight:700;font-size:83.333px;">10,000,000,000,000</text>
        <g transform="matrix(83.333333,0,0,83.333333,1774.466667,1146.964193)">
        </g>
        <text x="1449.717px" y="1146.964px" style="font-family:'Alegreya-Bold', 'Alegreya';font-weight:700;font-size:83.333px;">years ago</text>
    </g>
    <g transform="matrix(0.627597,0,0,0.627597,595.912152,2776.097128)">
        <text x="1158.55px" y="1088.631px" style="font-family:'Alegreya-Bold', 'Alegreya';font-weight:700;font-size:83.333px;">5,000,000,000,000</text>
        <g transform="matrix(83.333333,0,0,83.333333,1774.466667,1146.964193)">
        </g>
        <text x="1368.217px" y="1146.964px" style="font-family:'Alegreya-Bold', 'Alegreya';font-weight:700;font-size:83.333px;">years hence</text>
    </g>
    <g transform="matrix(52.299735,0,0,52.299735,1720.561789,2524.318394)">
    </g>
    <text x="1334.014px" y="2524.318px" style="font-family:'Alegreya-Bold', 'Alegreya';font-weight:700;font-size:52.3px;">5,000,000,000,000</text>
    <g transform="matrix(70.304561,0,0,70.304561,1656.662131,2976.868466)">
    </g>
    <text x="1484.908px" y="2976.868px" style="font-family:'Alegreya-BoldItalic', 'Alegreya';font-weight:700;font-style:italic;font-size:70.305px;">Today</text>
    <g transform="matrix(62.5,0,0,62.5,403.400574,468.342717)">
    </g>
    <text x="27.463px" y="468.343px" style="font-family:'Alegreya-Bold', 'Alegreya';font-weight:700;font-size:62.5px;">1,5000,000,000</text>
    <g transform="matrix(62.5,0,0,62.5,384.824167,3037.139972)">
    </g>
    <text x="40.199px" y="3037.14px" style="font-family:'Alegreya-Bold', 'Alegreya';font-weight:700;font-size:62.5px;">1,500,000,000</text>
    <g transform="matrix(62.5,0,0,62.5,393.164167,897.583333)">
    </g>
    <text x="43.914px" y="897.583px" style="font-family:'Alegreya-Bold', 'Alegreya';font-weight:700;font-size:62.5px;">1,000,000,000</text>
    <g transform="matrix(62.5,0,0,62.5,419.164167,2607.583333)">
    </g>
    <text x="69.914px" y="2607.583px" style="font-family:'Alegreya-Bold', 'Alegreya';font-weight:700;font-size:62.5px;">1,000,000,000</text>
    <g transform="matrix(62.5,0,0,62.5,416.461667,1324.583333)">
    </g>
    <text x="109.524px" y="1324.583px" style="font-family:'Alegreya-Bold', 'Alegreya';font-weight:700;font-size:62.5px;">500,000,000</text>
    <g transform="matrix(62.5,0,0,62.5,379.461667,2177.583333)">
    </g>
    <text x="72.524px" y="2177.583px" style="font-family:'Alegreya-Bold', 'Alegreya';font-weight:700;font-size:62.5px;">500,000,000</text>
    <g transform="matrix(83.333333,0,0,83.333333,1215.48166,53.583333)">
    </g>
    <text x="561.898px" y="53.583px" style="font-family:'AlegreyaSC-Medium', 'Alegreya SC';font-weight:500;font-size:83.333px;">P<tspan x="612.898px 656.232px 704.232px 759.815px 806.482px 850.815px 893.482px 913.232px 954.315px 1006.732px 1055.898px 1119.482px 1166.148px " y="53.583px 53.583px 53.583px 53.583px 53.583px 53.583px 53.583px 53.583px 53.583px 53.583px 53.583px 53.583px 53.583px ">lanets formed</tspan></text>
    <g transform="matrix(83.333333,0,0,83.333333,1032.648326,3463.482912)">
    </g>
    <text x="562.232px" y="3463.483px" style="font-family:'AlegreyaSC-Medium', 'Alegreya SC';font-weight:500;font-size:83.333px;">E<tspan x="615.815px 671.398px 724.898px 744.648px 797.065px 838.982px 858.732px 933.232px 981.232px " y="3463.483px 3463.483px 3463.483px 3463.483px 3463.483px 3463.483px 3463.483px 3463.483px 3463.483px ">nd of Man</tspan></text>
    <g transform="matrix(72.197609,0,0,72.197609,1201.292967,1235.535903)">
    </g>
    <text x="563.716px" y="1235.536px" style="font-family:'Alegreya-SemiBold', 'Alegreya';font-weight:600;font-size:72.198px;">Lif<tspan x="645.949px " y="1235.536px ">e</tspan> appears on E<tspan x="1074.731px " y="1235.536px ">a</tspan>rth</text>
    <g transform="matrix(62.897014,0,0,62.897014,906.839427,1629.634861)">
    </g>
    <text x="563.61px" y="1629.635px" style="font-family:'Alegreya-SemiBold', 'Alegreya';font-weight:600;font-size:62.897px;">F<tspan x="595.436px " y="1629.635px ">i</tspan>rst R<tspan x="734.69px " y="1629.635px ">e</tspan>ptiles</text>
    <g transform="matrix(62.897014,0,0,62.897014,879.353432,1791.634861)">
    </g>
    <text x="563.61px" y="1791.635px" style="font-family:'Alegreya-SemiBold', 'Alegreya';font-weight:600;font-size:62.897px;">S<tspan x="596.317px 625.124px 651.163px " y="1791.635px 1791.635px 1791.635px ">eco</tspan>nd M<tspan x="815.45px " y="1791.635px ">e</tspan>n</text>
    <g transform="matrix(62.897014,0,0,62.897014,854.697803,2361.634861)">
    </g>
    <text x="563.61px" y="2361.635px" style="font-family:'Alegreya-SemiBold', 'Alegreya';font-weight:600;font-size:62.897px;">F<tspan x="597.135px " y="2361.635px ">l</tspan>ying M<tspan x="790.794px " y="2361.635px ">e</tspan>n</text>
    <g transform="matrix(62.897014,0,0,62.897014,613.676445,3099.634861)">
        <path d="M0.035,0.005L0.042,-0.049C0.065,-0.052 0.081,-0.06 0.088,-0.072C0.095,-0.083 0.098,-0.102 0.098,-0.127L0.098,-0.35C0.097,-0.367 0.092,-0.378 0.083,-0.383C0.073,-0.388 0.057,-0.391 0.034,-0.392L0.03,-0.398L0.037,-0.444L0.098,-0.454C0.098,-0.517 0.108,-0.569 0.129,-0.612C0.15,-0.655 0.178,-0.687 0.215,-0.709C0.253,-0.731 0.295,-0.742 0.343,-0.742C0.377,-0.742 0.405,-0.739 0.426,-0.732C0.447,-0.725 0.458,-0.722 0.458,-0.722L0.461,-0.708C0.461,-0.708 0.458,-0.7 0.451,-0.684C0.444,-0.669 0.436,-0.65 0.428,-0.627L0.416,-0.623C0.416,-0.623 0.411,-0.626 0.402,-0.633C0.393,-0.64 0.38,-0.646 0.363,-0.652C0.347,-0.658 0.329,-0.661 0.308,-0.661C0.278,-0.661 0.256,-0.653 0.241,-0.637C0.226,-0.621 0.216,-0.597 0.211,-0.566C0.207,-0.535 0.204,-0.496 0.204,-0.45L0.373,-0.45L0.441,-0.451L0.446,-0.443L0.436,-0.387L0.391,-0.389L0.203,-0.389C0.203,-0.342 0.203,-0.295 0.202,-0.248C0.201,-0.202 0.2,-0.155 0.2,-0.108C0.2,-0.093 0.203,-0.082 0.209,-0.072C0.216,-0.064 0.228,-0.059 0.245,-0.059C0.258,-0.059 0.271,-0.059 0.282,-0.06C0.293,-0.061 0.299,-0.061 0.299,-0.061L0.302,-0.057L0.293,0.003C0.293,0.003 0.289,0.003 0.282,0.003C0.274,0.002 0.264,0.002 0.253,0.002C0.242,0.001 0.23,0.001 0.217,0.001C0.205,0 0.194,-0 0.184,-0C0.168,-0 0.151,0 0.135,0.001C0.118,0.001 0.101,0.001 0.086,0.002C0.071,0.003 0.058,0.003 0.049,0.004C0.04,0.005 0.035,0.005 0.035,0.005Z" style="fill-rule:nonzero;"/>
    </g>
    <g transform="matrix(62.897014,0,0,62.897014,613.676445,3099.634861)">
    </g>
    <g transform="matrix(62.897014,0,0,62.897014,930.048426,3099.634861)">
    </g>
    <text x="563.61px" y="3099.635px" style="font-family:'Alegreya-SemiBold', 'Alegreya';font-weight:600;font-size:62.897px;">F<tspan x="595.436px 634.495px " y="3099.635px 3099.635px ">it</tspan>eenth M<tspan x="866.145px " y="3099.635px ">e</tspan>n</text>
    <g transform="matrix(1.078235,0,0,1.078235,-1211.810552,2103.83548)">
        <text x="1648px" y="1088.631px" style="font-family:'Alegreya-SemiBoldItalic', 'Alegreya';font-weight:600;font-style:italic;font-size:58.333px;">Last M<tspan x="1799.375px " y="1088.631px ">e</tspan>n</text>
        <g transform="matrix(58.333333,0,0,58.333333,2035.741667,1088.630859)">
        </g>
        <text x="1860.567px" y="1088.631px" style="font-family:'Alegreya-SemiBold', 'Alegreya';font-weight:600;font-size:58.333px;">A<tspan x="1895.217px " y="1088.631px ">p</tspan>pear</text>
    </g>
    <g transform="matrix(62.897014,0,0,62.897014,565.937611,1887.634861)">
        <path d="M0.114,0.006L0.122,-0.053C0.152,-0.056 0.174,-0.06 0.188,-0.066C0.202,-0.071 0.211,-0.081 0.215,-0.096C0.219,-0.111 0.221,-0.133 0.221,-0.164L0.221,-0.574C0.19,-0.573 0.166,-0.571 0.148,-0.568C0.131,-0.565 0.118,-0.56 0.109,-0.551C0.1,-0.543 0.094,-0.531 0.089,-0.514C0.085,-0.497 0.081,-0.474 0.078,-0.445L0.006,-0.44C0.008,-0.46 0.01,-0.482 0.011,-0.506C0.013,-0.53 0.015,-0.554 0.016,-0.578C0.017,-0.601 0.018,-0.623 0.019,-0.642L0.029,-0.652L0.124,-0.641L0.461,-0.641L0.564,-0.651L0.586,-0.517C0.573,-0.53 0.561,-0.54 0.549,-0.547C0.538,-0.554 0.524,-0.56 0.509,-0.564C0.494,-0.567 0.473,-0.57 0.447,-0.572C0.421,-0.573 0.387,-0.574 0.346,-0.574C0.344,-0.551 0.342,-0.523 0.341,-0.487C0.34,-0.452 0.339,-0.414 0.338,-0.372C0.337,-0.33 0.335,-0.287 0.335,-0.244C0.334,-0.201 0.333,-0.16 0.333,-0.122C0.333,-0.099 0.337,-0.083 0.346,-0.073C0.354,-0.064 0.367,-0.059 0.386,-0.059C0.403,-0.059 0.419,-0.06 0.436,-0.062L0.44,-0.058L0.431,0.004C0.416,0.003 0.398,0.003 0.377,0.002C0.356,0.001 0.337,0.001 0.318,0.001C0.299,0 0.284,-0 0.272,-0C0.261,-0 0.246,0 0.229,0.001C0.211,0.001 0.192,0.002 0.172,0.003C0.152,0.004 0.133,0.005 0.114,0.006ZM0.496,0.003L0.504,-0.053C0.522,-0.055 0.535,-0.06 0.542,-0.068C0.549,-0.075 0.553,-0.088 0.553,-0.107L0.553,-0.588L0.542,-0.706L0.55,-0.719C0.566,-0.722 0.582,-0.724 0.599,-0.728C0.615,-0.731 0.63,-0.733 0.644,-0.736C0.658,-0.739 0.669,-0.741 0.678,-0.742L0.685,-0.725C0.682,-0.72 0.678,-0.703 0.674,-0.673C0.671,-0.644 0.668,-0.606 0.665,-0.556C0.662,-0.507 0.66,-0.451 0.658,-0.387C0.665,-0.393 0.674,-0.401 0.685,-0.41C0.697,-0.419 0.71,-0.428 0.724,-0.437C0.738,-0.446 0.752,-0.454 0.765,-0.461C0.777,-0.468 0.788,-0.471 0.796,-0.471C0.843,-0.471 0.879,-0.46 0.904,-0.438C0.93,-0.415 0.943,-0.383 0.943,-0.341C0.943,-0.332 0.942,-0.317 0.94,-0.296C0.938,-0.276 0.936,-0.254 0.933,-0.229C0.931,-0.204 0.929,-0.18 0.927,-0.158C0.926,-0.136 0.925,-0.118 0.925,-0.105C0.925,-0.088 0.927,-0.075 0.932,-0.067C0.937,-0.059 0.945,-0.055 0.957,-0.055C0.96,-0.055 0.965,-0.055 0.972,-0.056C0.978,-0.056 0.984,-0.056 0.989,-0.057L0.991,-0.053L0.982,0.003C0.973,0.002 0.962,0.002 0.95,0.002C0.937,0.001 0.925,0.001 0.912,0.001C0.9,0 0.889,-0 0.879,-0C0.871,-0 0.861,0 0.849,0.001C0.836,0.002 0.823,0.003 0.809,0.004C0.796,0.005 0.783,0.007 0.77,0.009L0.775,-0.047C0.792,-0.051 0.805,-0.057 0.812,-0.067C0.82,-0.075 0.824,-0.089 0.825,-0.106L0.829,-0.285C0.83,-0.315 0.825,-0.338 0.813,-0.353C0.801,-0.369 0.783,-0.377 0.759,-0.377C0.745,-0.377 0.728,-0.372 0.709,-0.363C0.69,-0.355 0.672,-0.344 0.657,-0.332C0.656,-0.297 0.656,-0.26 0.655,-0.222C0.655,-0.184 0.655,-0.145 0.655,-0.104C0.655,-0.086 0.657,-0.073 0.662,-0.067C0.667,-0.059 0.675,-0.056 0.686,-0.056C0.689,-0.056 0.71,-0.057 0.715,-0.057L0.717,-0.052L0.707,0.003C0.694,0.002 0.677,0.002 0.656,0.001C0.636,0 0.619,-0 0.604,-0C0.589,-0 0.571,0 0.55,0.001C0.53,0.002 0.512,0.002 0.496,0.003Z" style="fill-rule:nonzero;"/>
    </g>
    <g transform="matrix(62.897014,0,0,62.897014,565.937611,1887.634861)">
    </g>
    <g transform="matrix(62.897014,0,0,62.897014,598.469179,1887.634861)">
    </g>
    <g transform="matrix(62.897014,0,0,62.897014,998.040098,1887.634861)">
    </g>
    <text x="629.841px" y="1887.635px" style="font-family:'Alegreya-SemiBold', 'Alegreya';font-weight:600;font-size:62.897px;"><tspan x="629.841px " y="1887.635px ">e</tspan> G<tspan x="710.098px 734.816px " y="1887.635px 1887.635px ">re</tspan>at B<tspan x="864.321px 889.04px " y="1887.635px 1887.635px ">ra</tspan>ins</text>
    <g transform="matrix(62.897014,0,0,62.897014,613.676445,1960.634861)">
        <path d="M0.035,0.005L0.042,-0.049C0.065,-0.052 0.081,-0.06 0.088,-0.072C0.095,-0.083 0.098,-0.102 0.098,-0.127L0.098,-0.35C0.097,-0.367 0.092,-0.378 0.083,-0.383C0.073,-0.388 0.057,-0.391 0.034,-0.392L0.03,-0.398L0.037,-0.444L0.098,-0.454C0.098,-0.517 0.108,-0.569 0.129,-0.612C0.15,-0.655 0.178,-0.687 0.215,-0.709C0.253,-0.731 0.295,-0.742 0.343,-0.742C0.377,-0.742 0.405,-0.739 0.426,-0.732C0.447,-0.725 0.458,-0.722 0.458,-0.722L0.461,-0.708C0.461,-0.708 0.458,-0.7 0.451,-0.684C0.444,-0.669 0.436,-0.65 0.428,-0.627L0.416,-0.623C0.416,-0.623 0.411,-0.626 0.402,-0.633C0.393,-0.64 0.38,-0.646 0.363,-0.652C0.347,-0.658 0.329,-0.661 0.308,-0.661C0.278,-0.661 0.256,-0.653 0.241,-0.637C0.226,-0.621 0.216,-0.597 0.211,-0.566C0.207,-0.535 0.204,-0.496 0.204,-0.45L0.373,-0.45L0.441,-0.451L0.446,-0.443L0.436,-0.387L0.391,-0.389L0.203,-0.389C0.203,-0.342 0.203,-0.295 0.202,-0.248C0.201,-0.202 0.2,-0.155 0.2,-0.108C0.2,-0.093 0.203,-0.082 0.209,-0.072C0.216,-0.064 0.228,-0.059 0.245,-0.059C0.258,-0.059 0.271,-0.059 0.282,-0.06C0.293,-0.061 0.299,-0.061 0.299,-0.061L0.302,-0.057L0.293,0.003C0.293,0.003 0.289,0.003 0.282,0.003C0.274,0.002 0.264,0.002 0.253,0.002C0.242,0.001 0.23,0.001 0.217,0.001C0.205,0 0.194,-0 0.184,-0C0.168,-0 0.151,0 0.135,0.001C0.118,0.001 0.101,0.001 0.086,0.002C0.071,0.003 0.058,0.003 0.049,0.004C0.04,0.005 0.035,0.005 0.035,0.005Z" style="fill-rule:nonzero;"/>
    </g>
    <g transform="matrix(62.897014,0,0,62.897014,613.676445,1960.634861)">
    </g>
    <g transform="matrix(62.897014,0,0,62.897014,816.519315,1960.634861)">
    </g>
    <text x="563.61px" y="1960.635px" style="font-family:'Alegreya-SemiBold', 'Alegreya';font-weight:600;font-size:62.897px;">F<tspan x="595.436px 634.495px " y="1960.635px 1960.635px ">it</tspan>h M<tspan x="752.616px " y="1960.635px ">e</tspan>n</text>
    <g transform="matrix(1.078235,0,0,1.078235,-1212.754008,867.83548)">
        <text x="1648px" y="1088.631px" style="font-family:'Alegreya-SemiBold', 'Alegreya';font-weight:600;font-size:58.333px;">M<tspan x="1696.767px " y="1088.631px ">i</tspan>gr<tspan x="1766.242px " y="1088.631px ">a</tspan>tion to</text>
        <text x="1962.825px" y="1088.631px" style="font-family:'Alegreya-SemiBoldItalic', 'Alegreya';font-weight:600;font-style:italic;font-size:58.333px;">V<tspan x="1993.567px " y="1088.631px ">e</tspan>nus</text>
        <g transform="matrix(58.333333,0,0,58.333333,2049.858333,1146.964193)">
        </g>
        <text x="1648px" y="1146.964px" style="font-family:'Alegreya-SemiBold', 'Alegreya';font-weight:600;font-size:58.333px;">P<tspan x="1679.033px " y="1146.964px ">e</tspan>riod of E<tspan x="1911.375px 1936.225px " y="1146.964px 1146.964px ">cl</tspan>ipse</text>
    </g>
    <g transform="matrix(1.078235,0,0,1.078235,-1212.754008,1443.83548)">
        <text x="1648px" y="1088.631px" style="font-family:'Alegreya-SemiBold', 'Alegreya';font-weight:600;font-size:58.333px;">M<tspan x="1696.767px " y="1088.631px ">i</tspan>gr<tspan x="1766.242px " y="1088.631px ">a</tspan>tion to</text>
        <text x="1962.825px" y="1088.631px" style="font-family:'Alegreya-SemiBoldItalic', 'Alegreya';font-weight:600;font-style:italic;font-size:58.333px;">N<tspan x="2002.375px " y="1088.631px ">e</tspan>ptune</text>
    </g>
    <text x="632.116px" y="2752.635px" style="font-family:'Alegreya-SemiBold', 'Alegreya';font-weight:600;font-size:62.897px;">P<tspan x="665.577px " y="2752.635px ">e</tspan>riod of E<tspan x="916.096px 942.89px " y="2752.635px 2752.635px ">cl</tspan>ipse</text>
    <text x="638.116px" y="2946.635px" style="font-family:'Alegreya-SemiBold', 'Alegreya';font-weight:600;font-size:62.897px;">P<tspan x="671.577px " y="2946.635px ">e</tspan>riod of F<tspan x="919.454px " y="2946.635px ">l</tspan>uctuation</text>
    <g transform="matrix(62.897014,0,0,62.897014,987.536297,1737.634861)">
    </g>
    <text x="563.233px" y="1737.635px" style="font-family:'AlegreyaSC-Medium', 'Alegreya SC';font-weight:500;font-size:62.897px;">First Mammals</text>
    <path d="M515.368,18.952L515.368,3449.952" style="fill:none;stroke:black;stroke-width:20.83px;"/>
    <path d="M413.368,19.952L513.368,19.952" style="fill:none;stroke:black;stroke-width:20.83px;"/>
    <path d="M430.368,456.952L512.368,456.952" style="fill:none;stroke:black;stroke-width:20.83px;"/>
    <path d="M452.368,881.952L511.368,881.952" style="fill:none;stroke:black;stroke-width:20.83px;"/>
    <path d="M443.368,1316.952L511.368,1316.952" style="fill:none;stroke:black;stroke-width:20.83px;"/>
    <path d="M439.368,2169.952L514.368,2169.952" style="fill:none;stroke:black;stroke-width:20.83px;"/>
    <path d="M446.368,2598.952L513.368,2598.952" style="fill:none;stroke:black;stroke-width:20.83px;"/>
    <path d="M414.368,3026.952L514.368,3026.952" style="fill:none;stroke:black;stroke-width:20.83px;"/>
    <path d="M416.368,3448.952L516.368,3448.952" style="fill:none;stroke:black;stroke-width:20.83px;"/>
    <path d="M377.368,1741.952L512.368,1741.952" style="fill:none;stroke:black;stroke-width:20.83px;"/>
    <path d="M1838.367,2060.952L1838.367,3455.952" style="fill:none;stroke:black;stroke-width:12.5px;"/>
    <path d="M1729.368,2056.952L1837.367,2056.952" style="fill:none;stroke:black;stroke-width:12.5px;"/>
    <path d="M1772.368,2511.952L1835.367,2511.952" style="fill:none;stroke:black;stroke-width:12.5px;"/>
    <path d="M1687.367,2980.952L1836.367,2980.952" style="fill:none;stroke:black;stroke-width:12.5px;"/>
    <path d="M1730.367,3462.952L1836.367,3462.952" style="fill:none;stroke:black;stroke-width:12.5px;"/>
    <g transform="matrix(1,0,0,1,-414.6325,-348.047526)">
        <text x="1648px" y="1088.631px" style="font-family:'Alegreya-SemiBold', 'Alegreya';font-weight:600;font-size:79.167px;">O<tspan x="1701.596px " y="1088.631px ">n</tspan>e hundr<tspan x="2000.054px " y="1088.631px ">e</tspan>d times</text>
        <g transform="matrix(79.166667,0,0,79.166667,2270.329167,1163.630859)">
        </g>
        <text x="1648px" y="1163.631px" style="font-family:'Alegreya-SemiBold', 'Alegreya';font-weight:600;font-size:79.167px;">the pr<tspan x="1841.008px 1877.267px 1910.042px " y="1163.631px 1163.631px 1163.631px ">ece</tspan>ding sc<tspan x="2175.804px " y="1163.631px ">a</tspan>le</text>
    </g>
    <g transform="matrix(1,0,0,1,-94.6325,634.952474)">
        <text x="1648px" y="1088.631px" style="font-family:'Alegreya-SemiBold', 'Alegreya';font-weight:600;font-size:79.167px;">T<tspan x="1688.454px " y="1088.631px ">e</tspan>n thousand times</text>
        <text x="1648px" y="1163.631px" style="font-family:'Alegreya-SemiBold', 'Alegreya';font-weight:600;font-size:79.167px;">sc<tspan x="1713.392px " y="1163.631px ">a</tspan>le 4.<tspan x="1879.8px 1894.05px 1948.913px " y="1163.631px 1163.631px 1163.631px "> Do</tspan>ubtless</text>
        <g transform="matrix(79.166667,0,0,79.166667,2228.766667,1238.630859)">
        </g>
        <text x="1648px" y="1238.631px" style="font-family:'Alegreya-SemiBold', 'Alegreya';font-weight:600;font-size:79.167px;">ev<tspan x="1719.567px " y="1238.631px ">e</tspan>n less ac<tspan x="2020.242px " y="1238.631px ">c</tspan>ur<tspan x="2128.463px " y="1238.631px ">a</tspan>te</text>
    </g>
    <g transform="matrix(58.333333,0,0,58.333333,2381.260946,2322.14643)">
    </g>
    <text x="1870.436px" y="2322.146px" style="font-family:'Alegreya-SemiBold', 'Alegreya';font-weight:600;font-size:58.333px;">F<tspan x="1898.378px " y="2322.146px ">o</tspan>rmation of the Sun</text>
    <g transform="matrix(0.686136,0,0,0.686136,751.684064,2198.19777)">
        <text x="1648px" y="1088.631px" style="font-family:'Alegreya-SemiBold', 'Alegreya';font-weight:600;font-size:85.017px;">Planets f<tspan x="1951.086px " y="1088.631px ">o</tspan>rmed:</text>
        <text x="1648px" y="1163.631px" style="font-family:'Alegreya-SemiBold', 'Alegreya';font-weight:600;font-size:85.017px;">E<tspan x="1696.63px " y="1163.631px ">n</tspan>d of M<tspan x="1963.329px " y="1163.631px ">a</tspan>n</text>
        <text x="1648px" y="1238.631px" style="font-family:'Alegreya-SemiBold', 'Alegreya';font-weight:600;font-size:85.017px;">A<tspan x="1698.5px " y="1238.631px ">p</tspan>art fr<tspan x="1924.476px " y="1238.631px ">o</tspan>m ac<tspan x="2130.217px " y="1238.631px ">c</tspan>idents<tspan x="2384.419px " y="1238.631px ">,</tspan></text>
        <text x="1648px" y="1313.631px" style="font-family:'Alegreya-SemiBold', 'Alegreya';font-weight:600;font-size:85.017px;">E<tspan x="1697.14px " y="1313.631px ">a</tspan>rth w<tspan x="1922.265px " y="1313.631px ">o</tspan>uld still</text>
        <g transform="matrix(85.017177,0,0,85.017177,2337.574326,1388.630859)">
        </g>
        <text x="1648px" y="1388.631px" style="font-family:'Alegreya-SemiBold', 'Alegreya';font-weight:600;font-size:85.017px;">ha<tspan x="1733.272px 1771.19px " y="1388.631px 1388.631px ">ve</tspan> been habitable</text>
    </g>
    <g transform="matrix(1,0,0,1,-400.6325,-172.047526)">
        <text x="1634.898px" y="1088.631px" style="font-family:'Alegreya-SemiBold', 'Alegreya';font-weight:600;font-size:79.167px;">D<tspan x="1689.76px " y="1088.631px ">o</tspan>ubtless e<tspan x="2010.702px " y="1088.631px ">x</tspan>tr<tspan x="2106.81px " y="1088.631px ">e</tspan>me<tspan x="2245.352px " y="1088.631px ">l</tspan>y</text>
        <g transform="matrix(79.166667,0,0,79.166667,2141.64375,1163.630859)">
        </g>
        <text x="1795.369px" y="1163.631px" style="font-family:'Alegreya-SemiBold', 'Alegreya';font-weight:600;font-size:79.167px;">inac<tspan x="1933.119px " y="1163.631px ">c</tspan>ur<tspan x="2041.34px " y="1163.631px ">a</tspan>te</text>
    </g>
    <path d="M568.176,2827.122C564.969,2827.122 560.726,2826.665 555.445,2825.75L554.597,2824.607L556.294,2817.518C561.009,2818.28 564.592,2818.661 567.044,2818.661C573.268,2818.661 577.935,2817.213 581.047,2814.317C584.159,2811.42 585.715,2806.771 585.715,2800.368C585.715,2796.252 584.772,2789.163 582.886,2779.101C581,2769.955 580.057,2763.704 580.057,2760.35C580.057,2748.765 586.281,2740.913 598.728,2736.797L598.728,2736.111C586.281,2731.995 580.057,2724.144 580.057,2712.558C580.057,2709.357 581,2703.03 582.886,2693.579C584.772,2683.822 585.715,2676.733 585.715,2672.312C585.715,2666.062 584.159,2661.45 581.047,2658.478C577.935,2655.505 573.268,2654.019 567.044,2654.019C564.592,2654.019 561.009,2654.4 556.294,2655.162L554.597,2648.302L555.445,2647.159C559.406,2646.244 563.649,2645.787 568.176,2645.787C587.978,2645.787 597.88,2654.171 597.88,2670.94C597.88,2675.971 596.937,2683.67 595.051,2694.036C593.353,2702.268 592.505,2708.29 592.505,2712.101C592.505,2718.199 594.485,2722.925 598.445,2726.279C602.406,2729.632 608.63,2731.843 617.116,2732.91L617.116,2739.77C608.63,2740.837 602.406,2743.086 598.445,2746.516C594.485,2749.946 592.505,2754.634 592.505,2760.579C592.505,2764.39 593.353,2770.412 595.051,2778.644C596.937,2789.315 597.88,2797.09 597.88,2801.969C597.88,2818.738 587.978,2827.122 568.176,2827.122Z" style="fill-rule:nonzero;"/>
    <path d="M568.176,3025.122C564.969,3025.122 560.726,3024.678 555.445,3023.788L554.597,3022.676L556.294,3015.783C561.009,3016.524 564.592,3016.895 567.044,3016.895C573.268,3016.895 577.935,3015.486 581.047,3012.67C584.159,3009.853 585.715,3005.332 585.715,2999.106C585.715,2995.103 584.772,2988.21 582.886,2978.426C581,2969.531 580.057,2963.453 580.057,2960.192C580.057,2948.925 586.281,2941.291 598.728,2937.288L598.728,2936.621C586.281,2932.618 580.057,2924.984 580.057,2913.717C580.057,2910.604 581,2904.452 582.886,2895.261C584.772,2885.773 585.715,2878.88 585.715,2874.581C585.715,2868.503 584.159,2864.019 581.047,2861.128C577.935,2858.237 573.268,2856.792 567.044,2856.792C564.592,2856.792 561.009,2857.162 556.294,2857.904L554.597,2851.233L555.445,2850.121C559.406,2849.231 563.649,2848.787 568.176,2848.787C587.978,2848.787 597.88,2856.94 597.88,2873.247C597.88,2878.139 596.937,2885.625 595.051,2895.706C593.353,2903.711 592.505,2909.566 592.505,2913.273C592.505,2919.202 594.485,2923.798 598.445,2927.059C602.406,2930.321 608.63,2932.47 617.116,2933.508L617.116,2940.179C608.63,2941.216 602.406,2943.403 598.445,2946.739C594.485,2950.074 592.505,2954.632 592.505,2960.414C592.505,2964.12 593.353,2969.976 595.051,2977.981C596.937,2988.358 597.88,2995.918 597.88,3000.662C597.88,3016.969 587.978,3025.122 568.176,3025.122Z" style="fill-rule:nonzero;"/>
</svg>
