<?xml version="1.0" encoding="utf-8"?>
<svg xmlns="http://www.w3.org/2000/svg" xmlns:serif="http://www.serif.com/" xmlns:xlink="http://www.w3.org/1999/xlink" height="100%" style="fill-rule:evenodd;clip-rule:evenodd;stroke-linecap:round;stroke-linejoin:round;stroke-miterlimit:1.5;" version="1.1" width="100%" xml:space="preserve" viewBox="0 0 1867 3616">
	<g transform="matrix(121.133764,0,0,121.133764,1755.176877,446.546395)">
    </g>
	<text style="font-family:'Alegreya-SemiBoldItalic', 'Alegreya';font-weight:600;font-style:italic;font-size:121.134px;" x="1298.503px" y="446.546px">T<tspan xmlns="" x="1361.977px" y="446.546px">i</tspan>mesc<tspan xmlns="" x="1618.538px" y="446.546px">a</tspan>le</text>
	<g transform="matrix(133.333333,0,0,133.333333,1589.083333,574.8)">
    </g>
	<text style="font-family:'AlegreyaSC-BoldItalic', 'Alegreya SC';font-weight:700;font-style:italic;font-size:133.333px;" x="1526.817px" y="574.8px">2</text>
	<g transform="matrix(1,0,0,1,-1427.8,-1047.830859)">
		<text xmlns="" style="font-family:'Alegreya-Bold', 'Alegreya';font-weight:700;font-size:80px;" x="1516.307px" y="1088.631px">200,000</text>
		<text xmlns="" style="font-family:'Alegreya-Bold', 'Alegreya';font-weight:700;font-size:80px;" x="1516.307px" y="1163.631px">years</text>
		<g xmlns="" transform="matrix(80,0,0,80,1635.826667,1238.630859)">
        </g>
		<text xmlns="" style="font-family:'Alegreya-Bold', 'Alegreya';font-weight:700;font-size:80px;" x="1516.307px" y="1238.631px">ago</text>
	</g>
	<g transform="matrix(1,0,0,1,-1449.8,2269.169141)">
		<text xmlns="" style="font-family:'Alegreya-Bold', 'Alegreya';font-weight:700;font-size:80px;" x="1552.695px" y="1088.631px">200,000</text>
		<text xmlns="" style="font-family:'Alegreya-Bold', 'Alegreya';font-weight:700;font-size:80px;" x="1552.695px" y="1163.631px">years</text>
		<g xmlns="" transform="matrix(80,0,0,80,1750.455,1238.630859)">
        </g>
		<text xmlns="" style="font-family:'Alegreya-Bold', 'Alegreya';font-weight:700;font-size:80px;" x="1552.695px" y="1238.631px">hence</text>
	</g>
	<g transform="matrix(83.333333,0,0,83.333333,288.666667,1691.8)">
    </g>
	<text style="font-family:'Alegreya-Bold', 'Alegreya';font-weight:700;font-size:83.333px;" x="-1.25px" y="1691.8px">2000 AD</text>
	<g transform="matrix(79.166667,0,0,79.166667,235.604167,1610.8)">
    </g>
	<text style="font-family:'Alegreya-BoldItalic', 'Alegreya';font-weight:700;font-style:italic;font-size:79.167px;" x="42.2px" y="1610.8px">Today</text>
	<g transform="matrix(80,0,0,80,351.751667,442.8)">
    </g>
	<text style="font-family:'Alegreya-Bold', 'Alegreya';font-weight:700;font-size:80px;" x="109.032px" y="442.8px">150,000</text>
	<g transform="matrix(80,0,0,80,351.751667,2955.356639)">
    </g>
	<text style="font-family:'Alegreya-Bold', 'Alegreya';font-weight:700;font-size:80px;" x="109.032px" y="2955.357px">150,000</text>
	<g transform="matrix(80,0,0,80,332.386667,823.8)">
    </g>
	<text style="font-family:'Alegreya-Bold', 'Alegreya';font-weight:700;font-size:80px;" x="83.747px" y="823.8px">100,000</text>
	<g transform="matrix(80,0,0,80,353.386667,2473.8)">
    </g>
	<text style="font-family:'Alegreya-Bold', 'Alegreya';font-weight:700;font-size:80px;" x="104.747px" y="2473.8px">100,000</text>
	<g transform="matrix(80,0,0,80,358.876667,1234.8)">
    </g>
	<text style="font-family:'Alegreya-Bold', 'Alegreya';font-weight:700;font-size:80px;" x="145.357px" y="1234.8px">50,000</text>
	<g transform="matrix(80,0,0,80,354.876667,2064.8)">
    </g>
	<text style="font-family:'Alegreya-Bold', 'Alegreya';font-weight:700;font-size:80px;" x="141.357px" y="2064.8px">50,000</text>
	<g transform="matrix(1,0,0,1,-1126.59375,-1023.830859)">
		<text xmlns="" style="font-family:'Alegreya-SemiBold', 'Alegreya';font-weight:600;font-size:75px;" x="1678.085px" y="1088.631px">P<tspan xmlns="" x="1719.26px" y="1088.631px">a</tspan>leolithic C<tspan xmlns="" x="2067.185px" y="1088.631px">u</tspan>ltur<tspan xmlns="" x="2222.585px" y="1088.631px">e</tspan> w<tspan xmlns="" x="2324.06px 2358.185px" y="1088.631px 1088.631px">el</tspan>l established</text>
		<g xmlns="" transform="matrix(75,0,0,75,2495.547917,1163.630859)">
        </g>
		<text xmlns="" style="font-family:'Alegreya-SemiBold', 'Alegreya';font-weight:600;font-size:75px;" x="1943.698px" y="1163.631px">“H<tspan xmlns="" x="2026.798px" y="1163.631px">e</tspan>ide<tspan xmlns="" x="2157.298px" y="1163.631px">l</tspan>berg<tspan xmlns="" x="2314.948px 2341.873px 2355.373px 2417.848px" y="1163.631px 1163.631px 1163.631px 1163.631px">” Ma</tspan>n</text>
	</g>
	<g transform="matrix(75,0,0,75,995.666667,841.8)">
    </g>
	<text style="font-family:'Alegreya-SemiBold', 'Alegreya';font-weight:600;font-size:75px;" x="591.792px" y="841.8px">E<tspan xmlns="" x="634.917px" y="841.8px">o</tspan>anthr<tspan xmlns="" x="845.817px" y="841.8px">o</tspan>pus</text>
	<g transform="matrix(1,0,0,1,-1314.20625,70.169141)">
		<text xmlns="" style="font-family:'Alegreya-SemiBold', 'Alegreya';font-weight:600;font-size:75px;" x="1914.673px" y="1088.631px">M<tspan xmlns="" x="1976.623px" y="1088.631px">o</tspan>usterian C<tspan xmlns="" x="2334.823px" y="1088.631px">u</tspan>ltur<tspan xmlns="" x="2490.223px" y="1088.631px">e</tspan></text>
		<g xmlns="" transform="matrix(75,0,0,75,2458.797917,1163.630859)">
        </g>
		<text xmlns="" style="font-family:'Alegreya-SemiBold', 'Alegreya';font-weight:600;font-size:75px;" x="1914.673px" y="1163.631px">N<tspan xmlns="" x="1967.623px" y="1163.631px">e</tspan>anderthal M<tspan xmlns="" x="2381.098px" y="1163.631px">a</tspan>n</text>
	</g>
	<g transform="matrix(1,0,0,1,-1388.20625,1345.169141)">
		<text xmlns="" style="font-family:'Alegreya-SemiBold', 'Alegreya';font-weight:600;font-size:70.833px;" x="1950.823px" y="1088.631px">R<tspan xmlns="" x="1995.165px" y="1088.631px">i</tspan>se of P<tspan xmlns="" x="2201.502px" y="1088.631px">a</tspan>tag<tspan xmlns="" x="2328.435px" y="1088.631px">o</tspan>nia</text>
		<g xmlns="" transform="matrix(70.833333,0,0,70.833333,2437.09375,1163.630859)">
        </g>
		<text xmlns="" style="font-family:'Alegreya-SemiBold', 'Alegreya';font-weight:600;font-size:70.833px;" x="1950.823px" y="1163.631px">F<tspan xmlns="" x="1985.106px" y="1163.631px">a</tspan>ll of P<tspan xmlns="" x="2180.04px" y="1163.631px">a</tspan>tag<tspan xmlns="" x="2306.973px" y="1163.631px">o</tspan>nia</text>
	</g>
	<g transform="matrix(75,0,0,75,629.091667,1083.8)">
		<path xmlns="" d="M0.278,0.009C0.227,0.009 0.184,-0.001 0.147,-0.021C0.11,-0.04 0.082,-0.069 0.062,-0.105C0.043,-0.142 0.033,-0.186 0.033,-0.237C0.033,-0.292 0.045,-0.34 0.069,-0.381C0.092,-0.422 0.126,-0.453 0.169,-0.476C0.212,-0.498 0.263,-0.509 0.321,-0.509C0.339,-0.509 0.357,-0.508 0.375,-0.506C0.393,-0.504 0.41,-0.502 0.425,-0.499C0.441,-0.497 0.454,-0.495 0.464,-0.493C0.473,-0.491 0.478,-0.49 0.478,-0.49L0.483,-0.48C0.483,-0.48 0.482,-0.474 0.479,-0.461C0.476,-0.448 0.473,-0.43 0.47,-0.408C0.466,-0.385 0.463,-0.36 0.461,-0.332L0.382,-0.327C0.382,-0.327 0.382,-0.331 0.383,-0.34C0.384,-0.349 0.384,-0.358 0.384,-0.368C0.384,-0.391 0.377,-0.407 0.361,-0.417C0.347,-0.428 0.323,-0.433 0.292,-0.433C0.263,-0.433 0.239,-0.427 0.22,-0.415C0.2,-0.402 0.185,-0.384 0.175,-0.358C0.164,-0.333 0.159,-0.302 0.159,-0.263C0.159,-0.2 0.171,-0.152 0.196,-0.117C0.221,-0.082 0.255,-0.065 0.298,-0.065C0.329,-0.065 0.352,-0.073 0.369,-0.09C0.386,-0.107 0.397,-0.134 0.404,-0.172L0.483,-0.177C0.483,-0.177 0.482,-0.169 0.48,-0.154C0.477,-0.139 0.475,-0.121 0.472,-0.098C0.469,-0.075 0.467,-0.053 0.466,-0.031L0.458,-0.022C0.458,-0.022 0.45,-0.019 0.434,-0.015C0.419,-0.009 0.397,-0.004 0.37,0.001C0.343,0.006 0.312,0.009 0.278,0.009Z" style="fill-rule:nonzero;"/>
	</g>
	<g transform="matrix(75,0,0,75,629.091667,1083.8)">
    </g>
	<g transform="matrix(75,0,0,75,668.541667,1083.8)">
		<path xmlns="" d="M0.041,0.008L0.047,-0.046C0.07,-0.049 0.085,-0.056 0.093,-0.065C0.102,-0.073 0.106,-0.09 0.106,-0.113L0.107,-0.407C0.107,-0.424 0.105,-0.436 0.102,-0.441C0.098,-0.446 0.091,-0.449 0.08,-0.449C0.075,-0.449 0.07,-0.449 0.064,-0.449C0.058,-0.448 0.055,-0.448 0.055,-0.448L0.05,-0.455L0.057,-0.502C0.057,-0.502 0.062,-0.502 0.071,-0.502C0.08,-0.501 0.093,-0.501 0.108,-0.501C0.123,-0.501 0.14,-0.501 0.157,-0.501C0.174,-0.5 0.191,-0.5 0.206,-0.5C0.245,-0.5 0.281,-0.5 0.312,-0.501C0.343,-0.502 0.371,-0.503 0.395,-0.504C0.419,-0.505 0.439,-0.507 0.456,-0.509L0.462,-0.501C0.462,-0.501 0.461,-0.494 0.459,-0.48C0.456,-0.467 0.454,-0.449 0.451,-0.427C0.448,-0.406 0.445,-0.383 0.443,-0.359L0.37,-0.354C0.37,-0.354 0.37,-0.358 0.371,-0.366C0.372,-0.374 0.372,-0.38 0.372,-0.385C0.372,-0.4 0.37,-0.411 0.365,-0.417C0.36,-0.424 0.351,-0.429 0.336,-0.431C0.321,-0.434 0.298,-0.435 0.267,-0.435C0.247,-0.435 0.235,-0.433 0.23,-0.43C0.225,-0.427 0.223,-0.42 0.222,-0.409L0.217,-0.288L0.293,-0.288C0.303,-0.288 0.316,-0.289 0.331,-0.289C0.345,-0.29 0.359,-0.291 0.371,-0.292C0.384,-0.293 0.39,-0.294 0.39,-0.294L0.396,-0.287L0.384,-0.22C0.384,-0.22 0.378,-0.22 0.365,-0.221C0.353,-0.221 0.339,-0.221 0.323,-0.222C0.306,-0.222 0.291,-0.222 0.277,-0.222C0.264,-0.222 0.253,-0.222 0.241,-0.221C0.231,-0.22 0.221,-0.218 0.214,-0.217C0.213,-0.189 0.212,-0.167 0.212,-0.15L0.212,-0.108C0.212,-0.095 0.213,-0.085 0.215,-0.078C0.217,-0.071 0.222,-0.067 0.23,-0.065C0.237,-0.062 0.249,-0.061 0.265,-0.061C0.3,-0.061 0.326,-0.063 0.343,-0.067C0.359,-0.071 0.371,-0.08 0.379,-0.092C0.386,-0.105 0.391,-0.125 0.395,-0.151L0.462,-0.156L0.469,-0.148C0.469,-0.148 0.468,-0.141 0.465,-0.128C0.462,-0.114 0.459,-0.096 0.456,-0.074C0.452,-0.052 0.449,-0.028 0.446,-0.003L0.438,0.005C0.438,0.005 0.429,0.005 0.413,0.004C0.396,0.003 0.374,0.003 0.348,0.003C0.321,0.002 0.293,0.002 0.264,0.001C0.235,0 0.207,-0 0.182,-0C0.158,-0 0.135,0.001 0.113,0.002C0.091,0.003 0.073,0.005 0.06,0.006C0.048,0.007 0.041,0.008 0.041,0.008Z" style="fill-rule:nonzero;"/>
	</g>
	<g transform="matrix(75,0,0,75,668.541667,1083.8)">
    </g>
	<g transform="matrix(75,0,0,75,765.516667,1083.8)">
		<path xmlns="" d="M0.278,0.009C0.228,0.009 0.184,-0.001 0.147,-0.021C0.111,-0.04 0.082,-0.069 0.062,-0.105C0.043,-0.142 0.033,-0.186 0.033,-0.237C0.033,-0.294 0.045,-0.342 0.069,-0.383C0.092,-0.424 0.126,-0.455 0.17,-0.477C0.213,-0.498 0.265,-0.509 0.326,-0.509C0.351,-0.509 0.376,-0.507 0.401,-0.504C0.425,-0.501 0.447,-0.497 0.464,-0.494C0.48,-0.491 0.489,-0.49 0.489,-0.49L0.495,-0.48C0.495,-0.48 0.493,-0.474 0.49,-0.461C0.487,-0.448 0.484,-0.431 0.48,-0.41C0.477,-0.388 0.474,-0.364 0.473,-0.337L0.394,-0.332C0.394,-0.332 0.394,-0.336 0.395,-0.345C0.396,-0.353 0.396,-0.363 0.396,-0.374C0.396,-0.395 0.389,-0.411 0.376,-0.42C0.362,-0.429 0.339,-0.434 0.306,-0.434C0.273,-0.434 0.246,-0.428 0.224,-0.416C0.202,-0.403 0.185,-0.385 0.175,-0.359C0.164,-0.335 0.158,-0.302 0.158,-0.263C0.158,-0.199 0.171,-0.15 0.196,-0.116C0.221,-0.082 0.255,-0.065 0.299,-0.065C0.316,-0.065 0.33,-0.067 0.342,-0.07C0.354,-0.072 0.363,-0.076 0.37,-0.079C0.377,-0.082 0.38,-0.084 0.38,-0.084L0.38,-0.157C0.38,-0.172 0.378,-0.182 0.372,-0.187C0.367,-0.192 0.358,-0.194 0.343,-0.194L0.3,-0.194L0.296,-0.201L0.304,-0.256L0.332,-0.256C0.344,-0.256 0.358,-0.256 0.373,-0.256C0.388,-0.255 0.403,-0.255 0.418,-0.255C0.432,-0.255 0.445,-0.255 0.458,-0.256C0.471,-0.257 0.481,-0.257 0.489,-0.258C0.498,-0.259 0.502,-0.259 0.502,-0.259L0.507,-0.228C0.498,-0.222 0.491,-0.215 0.486,-0.207C0.481,-0.198 0.478,-0.186 0.477,-0.169C0.475,-0.152 0.474,-0.129 0.474,-0.099C0.474,-0.084 0.475,-0.071 0.476,-0.06C0.476,-0.049 0.478,-0.039 0.479,-0.032L0.472,-0.022C0.472,-0.022 0.464,-0.019 0.449,-0.015C0.433,-0.009 0.41,-0.004 0.381,0.001C0.352,0.006 0.317,0.009 0.278,0.009Z" style="fill-rule:nonzero;"/>
	</g>
	<g transform="matrix(75,0,0,75,765.516667,1083.8)">
    </g>
	<g transform="matrix(75,0,0,75,807.366667,1083.8)">
		<path xmlns="" d="M0.041,0.008L0.047,-0.046C0.07,-0.049 0.085,-0.056 0.093,-0.065C0.102,-0.073 0.106,-0.09 0.106,-0.113L0.107,-0.407C0.107,-0.424 0.105,-0.436 0.102,-0.441C0.098,-0.446 0.091,-0.449 0.08,-0.449C0.075,-0.449 0.07,-0.449 0.064,-0.449C0.058,-0.448 0.055,-0.448 0.055,-0.448L0.05,-0.455L0.057,-0.502C0.057,-0.502 0.062,-0.502 0.071,-0.502C0.08,-0.501 0.093,-0.501 0.108,-0.501C0.123,-0.501 0.14,-0.501 0.157,-0.501C0.174,-0.5 0.191,-0.5 0.206,-0.5C0.245,-0.5 0.281,-0.5 0.312,-0.501C0.343,-0.502 0.371,-0.503 0.395,-0.504C0.419,-0.505 0.439,-0.507 0.456,-0.509L0.462,-0.501C0.462,-0.501 0.461,-0.494 0.459,-0.48C0.456,-0.467 0.454,-0.449 0.451,-0.427C0.448,-0.406 0.445,-0.383 0.443,-0.359L0.37,-0.354C0.37,-0.354 0.37,-0.358 0.371,-0.366C0.372,-0.374 0.372,-0.38 0.372,-0.385C0.372,-0.4 0.37,-0.411 0.365,-0.417C0.36,-0.424 0.351,-0.429 0.336,-0.431C0.321,-0.434 0.298,-0.435 0.267,-0.435C0.247,-0.435 0.235,-0.433 0.23,-0.43C0.225,-0.427 0.223,-0.42 0.222,-0.409L0.217,-0.288L0.293,-0.288C0.303,-0.288 0.316,-0.289 0.331,-0.289C0.345,-0.29 0.359,-0.291 0.371,-0.292C0.384,-0.293 0.39,-0.294 0.39,-0.294L0.396,-0.287L0.384,-0.22C0.384,-0.22 0.378,-0.22 0.365,-0.221C0.353,-0.221 0.339,-0.221 0.323,-0.222C0.306,-0.222 0.291,-0.222 0.277,-0.222C0.264,-0.222 0.253,-0.222 0.241,-0.221C0.231,-0.22 0.221,-0.218 0.214,-0.217C0.213,-0.189 0.212,-0.167 0.212,-0.15L0.212,-0.108C0.212,-0.095 0.213,-0.085 0.215,-0.078C0.217,-0.071 0.222,-0.067 0.23,-0.065C0.237,-0.062 0.249,-0.061 0.265,-0.061C0.3,-0.061 0.326,-0.063 0.343,-0.067C0.359,-0.071 0.371,-0.08 0.379,-0.092C0.386,-0.105 0.391,-0.125 0.395,-0.151L0.462,-0.156L0.469,-0.148C0.469,-0.148 0.468,-0.141 0.465,-0.128C0.462,-0.114 0.459,-0.096 0.456,-0.074C0.452,-0.052 0.449,-0.028 0.446,-0.003L0.438,0.005C0.438,0.005 0.429,0.005 0.413,0.004C0.396,0.003 0.374,0.003 0.348,0.003C0.321,0.002 0.293,0.002 0.264,0.001C0.235,0 0.207,-0 0.182,-0C0.158,-0 0.135,0.001 0.113,0.002C0.091,0.003 0.073,0.005 0.06,0.006C0.048,0.007 0.041,0.008 0.041,0.008Z" style="fill-rule:nonzero;"/>
	</g>
	<g transform="matrix(75,0,0,75,807.366667,1083.8)">
    </g>
	<g transform="matrix(75,0,0,75,1267.866667,1083.8)">
    </g>
	<text style="font-family:'Alegreya-SemiBold', 'Alegreya';font-weight:600;font-size:75px;" x="601.792px" y="1083.8px">I<tspan xmlns="" x="706.867px 720.367px 845.692px" y="1083.8px 1083.8px 1083.8px"> A </tspan>(most r<tspan xmlns="" x="1080.067px 1114.417px 1145.467px" y="1083.8px 1083.8px 1083.8px">ece</tspan>nt)</text>
	<g transform="matrix(75,0,0,75,1031.129167,1666.8)">
		<path xmlns="" d="M0.041,0.007L0.046,-0.044C0.071,-0.049 0.087,-0.055 0.095,-0.064C0.102,-0.073 0.106,-0.088 0.106,-0.11L0.107,-0.408C0.107,-0.425 0.105,-0.436 0.101,-0.441C0.097,-0.446 0.089,-0.449 0.077,-0.449C0.072,-0.449 0.066,-0.449 0.059,-0.449C0.052,-0.448 0.049,-0.448 0.049,-0.448L0.045,-0.455L0.05,-0.501L0.081,-0.501C0.094,-0.501 0.107,-0.501 0.122,-0.501C0.137,-0.5 0.151,-0.5 0.164,-0.5C0.173,-0.5 0.184,-0.5 0.198,-0.501C0.21,-0.502 0.223,-0.502 0.236,-0.503C0.249,-0.504 0.259,-0.504 0.268,-0.505C0.276,-0.506 0.28,-0.506 0.28,-0.506L0.275,-0.453C0.254,-0.45 0.24,-0.446 0.234,-0.441C0.227,-0.436 0.223,-0.425 0.222,-0.41C0.22,-0.379 0.218,-0.345 0.217,-0.308C0.216,-0.272 0.214,-0.235 0.213,-0.199C0.212,-0.163 0.212,-0.131 0.212,-0.104C0.212,-0.083 0.214,-0.068 0.218,-0.061C0.223,-0.054 0.231,-0.05 0.244,-0.05C0.253,-0.05 0.262,-0.051 0.269,-0.052C0.276,-0.052 0.28,-0.053 0.28,-0.053L0.283,-0.048L0.276,0.002C0.276,0.002 0.272,0.002 0.263,0.002C0.254,0.001 0.243,0.001 0.23,0.001C0.216,0.001 0.202,0.001 0.189,0.001C0.175,0 0.164,-0 0.155,-0C0.14,-0 0.123,0.001 0.105,0.002C0.087,0.003 0.072,0.004 0.06,0.005C0.047,0.006 0.041,0.007 0.041,0.007Z" style="fill-rule:nonzero;"/>
	</g>
	<g transform="matrix(75,0,0,75,1031.129167,1666.8)">
    </g>
	<g transform="matrix(75,0,0,75,1060.379167,1666.8)">
		<path xmlns="" d="M0.433,0.012C0.415,0.012 0.399,0.006 0.384,-0.006C0.368,-0.018 0.355,-0.036 0.343,-0.06L0.271,-0.196L0.213,-0.196L0.212,-0.11C0.212,-0.093 0.213,-0.081 0.215,-0.072C0.218,-0.063 0.223,-0.058 0.232,-0.055C0.241,-0.052 0.254,-0.051 0.271,-0.05L0.274,-0.046L0.266,0.003C0.266,0.003 0.262,0.003 0.254,0.003C0.246,0.002 0.236,0.002 0.225,0.002C0.214,0.001 0.202,0.001 0.19,0.001L0.157,0.001C0.14,0 0.123,0.001 0.105,0.002C0.087,0.003 0.041,0.005 0.041,0.005L0.048,-0.048C0.071,-0.051 0.087,-0.057 0.095,-0.066C0.102,-0.074 0.106,-0.089 0.106,-0.111L0.107,-0.411C0.107,-0.426 0.105,-0.436 0.102,-0.442C0.098,-0.447 0.091,-0.449 0.081,-0.449C0.075,-0.449 0.069,-0.449 0.062,-0.449C0.055,-0.448 0.052,-0.448 0.052,-0.448L0.047,-0.454L0.055,-0.502C0.055,-0.502 0.059,-0.502 0.066,-0.502C0.073,-0.501 0.083,-0.501 0.094,-0.501C0.105,-0.501 0.117,-0.501 0.128,-0.501C0.139,-0.5 0.149,-0.5 0.157,-0.5C0.166,-0.5 0.177,-0.5 0.191,-0.501C0.204,-0.501 0.218,-0.501 0.233,-0.502C0.247,-0.502 0.259,-0.502 0.268,-0.503C0.277,-0.504 0.282,-0.504 0.282,-0.504C0.345,-0.504 0.393,-0.492 0.426,-0.47C0.459,-0.447 0.476,-0.413 0.476,-0.37C0.476,-0.339 0.466,-0.311 0.447,-0.286C0.428,-0.26 0.4,-0.238 0.365,-0.221L0.437,-0.112C0.452,-0.089 0.467,-0.072 0.481,-0.061C0.496,-0.05 0.512,-0.045 0.529,-0.045L0.535,-0.037L0.529,0.004L0.433,0.012ZM0.29,-0.258C0.294,-0.26 0.3,-0.263 0.308,-0.267C0.316,-0.27 0.324,-0.276 0.332,-0.283C0.34,-0.29 0.347,-0.3 0.352,-0.311C0.358,-0.323 0.361,-0.338 0.361,-0.355C0.361,-0.384 0.351,-0.405 0.331,-0.418C0.31,-0.432 0.279,-0.439 0.237,-0.439C0.232,-0.439 0.228,-0.438 0.226,-0.435C0.224,-0.433 0.223,-0.428 0.223,-0.421C0.22,-0.39 0.218,-0.363 0.217,-0.339C0.216,-0.314 0.216,-0.29 0.216,-0.266L0.29,-0.258Z" style="fill-rule:nonzero;"/>
	</g>
	<g transform="matrix(75,0,0,75,1060.379167,1666.8)">
    </g>
	<g transform="matrix(75,0,0,75,1106.654167,1666.8)">
		<path xmlns="" d="M0.191,0.009C0.163,0.009 0.138,0.007 0.116,0.002C0.094,-0.004 0.077,-0.008 0.065,-0.013C0.053,-0.018 0.047,-0.02 0.047,-0.02L0.04,-0.031C0.04,-0.031 0.041,-0.038 0.044,-0.051C0.046,-0.064 0.048,-0.081 0.05,-0.102C0.052,-0.122 0.053,-0.143 0.053,-0.164L0.121,-0.169C0.121,-0.14 0.124,-0.118 0.129,-0.103C0.134,-0.087 0.144,-0.076 0.157,-0.07C0.17,-0.064 0.189,-0.061 0.212,-0.061C0.238,-0.061 0.259,-0.066 0.275,-0.077C0.291,-0.088 0.299,-0.102 0.299,-0.12C0.299,-0.135 0.293,-0.147 0.282,-0.157C0.27,-0.167 0.255,-0.177 0.237,-0.185C0.218,-0.195 0.199,-0.204 0.178,-0.213C0.157,-0.223 0.136,-0.234 0.116,-0.246C0.096,-0.259 0.08,-0.274 0.067,-0.291C0.053,-0.308 0.047,-0.329 0.047,-0.354C0.047,-0.385 0.056,-0.412 0.075,-0.434C0.094,-0.458 0.12,-0.476 0.152,-0.489C0.185,-0.502 0.223,-0.509 0.266,-0.509C0.293,-0.509 0.317,-0.507 0.338,-0.504C0.359,-0.501 0.375,-0.497 0.387,-0.494C0.399,-0.491 0.405,-0.489 0.405,-0.489L0.412,-0.478C0.412,-0.478 0.411,-0.472 0.408,-0.46C0.405,-0.447 0.403,-0.431 0.4,-0.411C0.397,-0.39 0.394,-0.368 0.391,-0.345L0.331,-0.34L0.323,-0.345C0.323,-0.345 0.323,-0.347 0.324,-0.352C0.325,-0.357 0.325,-0.364 0.325,-0.372C0.325,-0.395 0.319,-0.411 0.306,-0.42C0.294,-0.43 0.273,-0.435 0.244,-0.435C0.221,-0.435 0.202,-0.43 0.186,-0.419C0.171,-0.409 0.164,-0.396 0.164,-0.38C0.164,-0.36 0.175,-0.344 0.197,-0.331C0.219,-0.318 0.244,-0.306 0.272,-0.293C0.295,-0.283 0.318,-0.272 0.341,-0.26C0.363,-0.247 0.382,-0.232 0.397,-0.214C0.411,-0.196 0.419,-0.174 0.419,-0.148C0.419,-0.117 0.409,-0.089 0.391,-0.066C0.371,-0.042 0.345,-0.023 0.311,-0.011C0.277,0.003 0.237,0.009 0.191,0.009Z" style="fill-rule:nonzero;"/>
	</g>
	<g transform="matrix(75,0,0,75,1106.654167,1666.8)">
    </g>
	<g transform="matrix(75,0,0,75,1146.704167,1666.8)">
		<path xmlns="" d="M0.099,0.005L0.106,-0.047C0.131,-0.049 0.15,-0.052 0.161,-0.057C0.172,-0.062 0.18,-0.07 0.183,-0.081C0.186,-0.092 0.188,-0.107 0.188,-0.128L0.188,-0.439C0.167,-0.438 0.151,-0.437 0.138,-0.434C0.125,-0.432 0.115,-0.428 0.108,-0.421C0.101,-0.415 0.095,-0.405 0.091,-0.392C0.088,-0.378 0.084,-0.359 0.081,-0.336L0.013,-0.332C0.013,-0.332 0.013,-0.337 0.015,-0.347C0.015,-0.357 0.017,-0.37 0.018,-0.387C0.018,-0.404 0.02,-0.422 0.021,-0.442C0.022,-0.461 0.023,-0.481 0.023,-0.5L0.032,-0.509L0.114,-0.501L0.371,-0.501L0.454,-0.509L0.463,-0.5C0.464,-0.481 0.464,-0.461 0.465,-0.442C0.466,-0.422 0.467,-0.404 0.468,-0.389C0.468,-0.373 0.47,-0.36 0.471,-0.351C0.472,-0.341 0.472,-0.336 0.472,-0.336L0.404,-0.332C0.401,-0.357 0.397,-0.376 0.394,-0.39C0.39,-0.404 0.385,-0.415 0.378,-0.421C0.371,-0.428 0.362,-0.433 0.351,-0.435C0.339,-0.437 0.323,-0.438 0.303,-0.439C0.302,-0.422 0.3,-0.4 0.299,-0.374C0.298,-0.348 0.297,-0.32 0.296,-0.289C0.295,-0.258 0.295,-0.227 0.294,-0.196C0.293,-0.165 0.293,-0.134 0.293,-0.105C0.293,-0.086 0.296,-0.073 0.303,-0.065C0.31,-0.056 0.322,-0.052 0.339,-0.052C0.351,-0.052 0.361,-0.052 0.369,-0.053C0.378,-0.054 0.382,-0.054 0.382,-0.054L0.386,-0.051L0.378,0.004C0.378,0.004 0.373,0.004 0.362,0.003C0.351,0.002 0.338,0.002 0.323,0.002C0.308,0.001 0.292,0.001 0.277,0.001C0.261,0 0.248,-0 0.237,-0C0.225,-0 0.211,0 0.196,0.001C0.181,0.001 0.166,0.002 0.151,0.003C0.136,0.004 0.124,0.004 0.114,0.005C0.104,0.005 0.099,0.005 0.099,0.005Z" style="fill-rule:nonzero;"/>
	</g>
	<g transform="matrix(75,0,0,75,1146.704167,1666.8)">
    </g>
	<g transform="matrix(75,0,0,75,1281.704167,1666.8)">
		<path xmlns="" d="M0.269,0.009C0.22,0.009 0.179,-0.001 0.144,-0.021C0.108,-0.041 0.081,-0.069 0.062,-0.106C0.043,-0.143 0.033,-0.186 0.033,-0.237C0.033,-0.292 0.044,-0.339 0.067,-0.381C0.09,-0.421 0.121,-0.453 0.162,-0.476C0.203,-0.498 0.25,-0.509 0.303,-0.509C0.353,-0.509 0.396,-0.499 0.431,-0.48C0.467,-0.461 0.494,-0.433 0.513,-0.397C0.533,-0.36 0.542,-0.316 0.542,-0.265C0.542,-0.21 0.531,-0.163 0.508,-0.121C0.485,-0.081 0.454,-0.048 0.413,-0.026C0.371,-0.003 0.324,0.009 0.269,0.009ZM0.29,-0.059C0.329,-0.059 0.36,-0.073 0.383,-0.102C0.405,-0.131 0.416,-0.172 0.416,-0.225C0.416,-0.27 0.411,-0.308 0.4,-0.34C0.389,-0.37 0.374,-0.394 0.353,-0.41C0.333,-0.425 0.309,-0.433 0.28,-0.433C0.242,-0.433 0.212,-0.419 0.191,-0.391C0.169,-0.362 0.158,-0.321 0.158,-0.268C0.158,-0.223 0.163,-0.184 0.174,-0.153C0.184,-0.122 0.199,-0.098 0.219,-0.083C0.239,-0.067 0.263,-0.059 0.29,-0.059Z" style="fill-rule:nonzero;"/>
	</g>
	<g transform="matrix(75,0,0,75,1281.704167,1666.8)">
    </g>
	<g transform="matrix(75,0,0,75,1330.079167,1666.8)">
		<path xmlns="" d="M0.433,0.012C0.415,0.012 0.399,0.006 0.384,-0.006C0.368,-0.018 0.355,-0.036 0.343,-0.06L0.271,-0.196L0.213,-0.196L0.212,-0.11C0.212,-0.093 0.213,-0.081 0.215,-0.072C0.218,-0.063 0.223,-0.058 0.232,-0.055C0.241,-0.052 0.254,-0.051 0.271,-0.05L0.274,-0.046L0.266,0.003C0.266,0.003 0.262,0.003 0.254,0.003C0.246,0.002 0.236,0.002 0.225,0.002C0.214,0.001 0.202,0.001 0.19,0.001L0.157,0.001C0.14,0 0.123,0.001 0.105,0.002C0.087,0.003 0.041,0.005 0.041,0.005L0.048,-0.048C0.071,-0.051 0.087,-0.057 0.095,-0.066C0.102,-0.074 0.106,-0.089 0.106,-0.111L0.107,-0.411C0.107,-0.426 0.105,-0.436 0.102,-0.442C0.098,-0.447 0.091,-0.449 0.081,-0.449C0.075,-0.449 0.069,-0.449 0.062,-0.449C0.055,-0.448 0.052,-0.448 0.052,-0.448L0.047,-0.454L0.055,-0.502C0.055,-0.502 0.059,-0.502 0.066,-0.502C0.073,-0.501 0.083,-0.501 0.094,-0.501C0.105,-0.501 0.117,-0.501 0.128,-0.501C0.139,-0.5 0.149,-0.5 0.157,-0.5C0.166,-0.5 0.177,-0.5 0.191,-0.501C0.204,-0.501 0.218,-0.501 0.233,-0.502C0.247,-0.502 0.259,-0.502 0.268,-0.503C0.277,-0.504 0.282,-0.504 0.282,-0.504C0.345,-0.504 0.393,-0.492 0.426,-0.47C0.459,-0.447 0.476,-0.413 0.476,-0.37C0.476,-0.339 0.466,-0.311 0.447,-0.286C0.428,-0.26 0.4,-0.238 0.365,-0.221L0.437,-0.112C0.452,-0.089 0.467,-0.072 0.481,-0.061C0.496,-0.05 0.512,-0.045 0.529,-0.045L0.535,-0.037L0.529,0.004L0.433,0.012ZM0.29,-0.258C0.294,-0.26 0.3,-0.263 0.308,-0.267C0.316,-0.27 0.324,-0.276 0.332,-0.283C0.34,-0.29 0.347,-0.3 0.352,-0.311C0.358,-0.323 0.361,-0.338 0.361,-0.355C0.361,-0.384 0.351,-0.405 0.331,-0.418C0.31,-0.432 0.279,-0.439 0.237,-0.439C0.232,-0.439 0.228,-0.438 0.226,-0.435C0.224,-0.433 0.223,-0.428 0.223,-0.421C0.22,-0.39 0.218,-0.363 0.217,-0.339C0.216,-0.314 0.216,-0.29 0.216,-0.266L0.29,-0.258Z" style="fill-rule:nonzero;"/>
	</g>
	<g transform="matrix(75,0,0,75,1330.079167,1666.8)">
    </g>
	<g transform="matrix(75,0,0,75,1376.354167,1666.8)">
		<path xmlns="" d="M0.045,0.008L0.052,-0.046C0.073,-0.049 0.087,-0.056 0.095,-0.065C0.102,-0.073 0.106,-0.09 0.106,-0.113L0.107,-0.408C0.107,-0.425 0.105,-0.436 0.101,-0.441C0.097,-0.446 0.089,-0.449 0.077,-0.449C0.072,-0.449 0.067,-0.449 0.061,-0.449C0.055,-0.448 0.052,-0.448 0.052,-0.448L0.047,-0.455L0.054,-0.501L0.083,-0.501C0.096,-0.501 0.109,-0.501 0.124,-0.501C0.139,-0.5 0.152,-0.5 0.164,-0.5C0.173,-0.5 0.185,-0.5 0.199,-0.501C0.213,-0.502 0.227,-0.502 0.24,-0.503C0.254,-0.504 0.266,-0.504 0.276,-0.505C0.285,-0.506 0.29,-0.506 0.29,-0.506L0.284,-0.45C0.265,-0.449 0.252,-0.446 0.243,-0.442C0.235,-0.438 0.23,-0.432 0.227,-0.425C0.224,-0.418 0.222,-0.407 0.221,-0.394C0.22,-0.366 0.218,-0.336 0.216,-0.303C0.215,-0.271 0.214,-0.239 0.213,-0.206C0.212,-0.173 0.212,-0.14 0.212,-0.109C0.212,-0.09 0.215,-0.077 0.222,-0.071C0.228,-0.064 0.242,-0.061 0.264,-0.061C0.291,-0.061 0.311,-0.064 0.325,-0.07C0.338,-0.076 0.349,-0.088 0.355,-0.104C0.362,-0.121 0.368,-0.147 0.372,-0.181L0.439,-0.188L0.445,-0.179C0.445,-0.179 0.444,-0.171 0.441,-0.154C0.438,-0.137 0.435,-0.116 0.432,-0.089C0.429,-0.062 0.426,-0.033 0.423,-0.002L0.415,0.006C0.415,0.006 0.408,0.006 0.393,0.005C0.378,0.004 0.358,0.004 0.335,0.003C0.312,0.002 0.287,0.002 0.261,0.001C0.234,0 0.209,-0 0.184,-0C0.16,-0 0.137,0.001 0.116,0.002C0.095,0.003 0.077,0.005 0.065,0.006C0.051,0.007 0.045,0.008 0.045,0.008Z" style="fill-rule:nonzero;"/>
	</g>
	<g transform="matrix(75,0,0,75,1375.379167,1666.8)">
    </g>
	<g transform="matrix(75,0,0,75,1414.754167,1666.8)">
		<path xmlns="" d="M0.271,0.009C0.271,0.009 0.264,0.008 0.25,0.007C0.236,0.005 0.219,0.003 0.2,0.002C0.181,0.001 0.163,-0 0.147,-0C0.133,-0 0.118,0.001 0.102,0.002C0.085,0.003 0.071,0.005 0.06,0.006C0.049,0.007 0.043,0.008 0.043,0.008L0.048,-0.046C0.071,-0.05 0.087,-0.057 0.095,-0.066C0.103,-0.074 0.107,-0.09 0.107,-0.111L0.108,-0.407C0.108,-0.423 0.106,-0.434 0.103,-0.44C0.099,-0.446 0.092,-0.449 0.082,-0.449C0.077,-0.449 0.071,-0.449 0.064,-0.448C0.057,-0.447 0.054,-0.447 0.054,-0.447L0.05,-0.454L0.057,-0.502C0.057,-0.502 0.061,-0.502 0.068,-0.502C0.075,-0.501 0.085,-0.501 0.096,-0.501C0.107,-0.501 0.119,-0.501 0.131,-0.501C0.142,-0.5 0.152,-0.5 0.16,-0.5C0.169,-0.5 0.181,-0.5 0.196,-0.501C0.21,-0.501 0.224,-0.501 0.239,-0.502C0.254,-0.502 0.266,-0.502 0.276,-0.503C0.285,-0.504 0.29,-0.504 0.29,-0.504C0.346,-0.504 0.394,-0.495 0.433,-0.476C0.473,-0.457 0.504,-0.431 0.525,-0.396C0.546,-0.361 0.557,-0.319 0.557,-0.27C0.557,-0.215 0.545,-0.167 0.52,-0.125C0.496,-0.083 0.462,-0.05 0.419,-0.026C0.377,-0.003 0.327,0.009 0.271,0.009ZM0.246,-0.436C0.237,-0.436 0.231,-0.435 0.228,-0.432C0.225,-0.429 0.223,-0.424 0.222,-0.417C0.219,-0.352 0.216,-0.294 0.214,-0.243C0.212,-0.193 0.211,-0.149 0.211,-0.114C0.211,-0.092 0.216,-0.077 0.226,-0.07C0.235,-0.062 0.254,-0.058 0.282,-0.058C0.33,-0.058 0.367,-0.074 0.393,-0.105C0.418,-0.137 0.431,-0.184 0.431,-0.246C0.431,-0.291 0.424,-0.327 0.411,-0.354C0.397,-0.382 0.376,-0.403 0.349,-0.416C0.322,-0.429 0.287,-0.436 0.246,-0.436Z" style="fill-rule:nonzero;"/>
	</g>
	<g transform="matrix(75,0,0,75,1414.754167,1666.8)">
    </g>
	<g transform="matrix(75,0,0,75,1528.529167,1666.8)">
		<path xmlns="" d="M0.099,0.005L0.106,-0.047C0.131,-0.049 0.15,-0.052 0.161,-0.057C0.172,-0.062 0.18,-0.07 0.183,-0.081C0.186,-0.092 0.188,-0.107 0.188,-0.128L0.188,-0.439C0.167,-0.438 0.151,-0.437 0.138,-0.434C0.125,-0.432 0.115,-0.428 0.108,-0.421C0.101,-0.415 0.095,-0.405 0.091,-0.392C0.088,-0.378 0.084,-0.359 0.081,-0.336L0.013,-0.332C0.013,-0.332 0.013,-0.337 0.015,-0.347C0.015,-0.357 0.017,-0.37 0.018,-0.387C0.018,-0.404 0.02,-0.422 0.021,-0.442C0.022,-0.461 0.023,-0.481 0.023,-0.5L0.032,-0.509L0.114,-0.501L0.371,-0.501L0.454,-0.509L0.463,-0.5C0.464,-0.481 0.464,-0.461 0.465,-0.442C0.466,-0.422 0.467,-0.404 0.468,-0.389C0.468,-0.373 0.47,-0.36 0.471,-0.351C0.472,-0.341 0.472,-0.336 0.472,-0.336L0.404,-0.332C0.401,-0.357 0.397,-0.376 0.394,-0.39C0.39,-0.404 0.385,-0.415 0.378,-0.421C0.371,-0.428 0.362,-0.433 0.351,-0.435C0.339,-0.437 0.323,-0.438 0.303,-0.439C0.302,-0.422 0.3,-0.4 0.299,-0.374C0.298,-0.348 0.297,-0.32 0.296,-0.289C0.295,-0.258 0.295,-0.227 0.294,-0.196C0.293,-0.165 0.293,-0.134 0.293,-0.105C0.293,-0.086 0.296,-0.073 0.303,-0.065C0.31,-0.056 0.322,-0.052 0.339,-0.052C0.351,-0.052 0.361,-0.052 0.369,-0.053C0.378,-0.054 0.382,-0.054 0.382,-0.054L0.386,-0.051L0.378,0.004C0.378,0.004 0.373,0.004 0.362,0.003C0.351,0.002 0.338,0.002 0.323,0.002C0.308,0.001 0.292,0.001 0.277,0.001C0.261,0 0.248,-0 0.237,-0C0.225,-0 0.211,0 0.196,0.001C0.181,0.001 0.166,0.002 0.151,0.003C0.136,0.004 0.124,0.004 0.114,0.005C0.104,0.005 0.099,0.005 0.099,0.005Z" style="fill-rule:nonzero;"/>
	</g>
	<g transform="matrix(75,0,0,75,1526.204167,1666.8)">
    </g>
	<g transform="matrix(75,0,0,75,1567.904167,1666.8)">
		<path xmlns="" d="M0.286,0.006L0.282,-0L0.286,-0.047C0.304,-0.049 0.318,-0.051 0.327,-0.052C0.335,-0.054 0.342,-0.057 0.345,-0.06C0.348,-0.064 0.35,-0.069 0.35,-0.075C0.35,-0.079 0.35,-0.083 0.349,-0.088C0.348,-0.092 0.347,-0.096 0.345,-0.101L0.328,-0.16C0.318,-0.161 0.305,-0.161 0.29,-0.161L0.252,-0.161C0.239,-0.161 0.226,-0.161 0.211,-0.16C0.196,-0.159 0.184,-0.157 0.174,-0.156L0.153,-0.098C0.152,-0.092 0.15,-0.087 0.149,-0.084C0.148,-0.08 0.148,-0.077 0.148,-0.074C0.148,-0.065 0.151,-0.059 0.157,-0.056C0.162,-0.052 0.172,-0.05 0.187,-0.05L0.222,-0.05L0.226,-0.044L0.22,0.004C0.22,0.004 0.214,0.004 0.201,0.003C0.188,0.002 0.173,0.002 0.154,0.001C0.136,0 0.118,-0 0.1,-0C0.085,-0 0.07,0 0.055,0.001C0.04,0.001 0.027,0.001 0.017,0.002C0.006,0.002 0.001,0.002 0.001,0.002L0.007,-0.05C0.02,-0.052 0.031,-0.057 0.039,-0.065C0.047,-0.072 0.054,-0.085 0.061,-0.102L0.209,-0.496L0.335,-0.509L0.344,-0.505C0.344,-0.505 0.346,-0.498 0.35,-0.484C0.354,-0.471 0.359,-0.452 0.365,-0.429C0.372,-0.407 0.379,-0.381 0.387,-0.352C0.395,-0.324 0.403,-0.295 0.412,-0.265C0.421,-0.235 0.429,-0.206 0.438,-0.178C0.447,-0.15 0.455,-0.125 0.462,-0.104C0.469,-0.085 0.476,-0.072 0.485,-0.064C0.494,-0.056 0.509,-0.051 0.528,-0.049L0.531,-0.044L0.525,0.002C0.525,0.002 0.519,0.002 0.508,0.002C0.496,0.001 0.482,0.001 0.467,0.001C0.451,0 0.437,-0 0.425,-0C0.402,-0 0.379,0.001 0.358,0.002C0.337,0.003 0.319,0.004 0.306,0.005C0.293,0.006 0.286,0.006 0.286,0.006ZM0.194,-0.223L0.252,-0.223C0.261,-0.223 0.272,-0.223 0.284,-0.224C0.295,-0.225 0.305,-0.225 0.314,-0.226L0.265,-0.397L0.254,-0.397L0.194,-0.223Z" style="fill-rule:nonzero;"/>
	</g>
	<g transform="matrix(75,0,0,75,1565.579167,1666.8)">
    </g>
	<g transform="matrix(75,0,0,75,1610.954167,1666.8)">
		<path xmlns="" d="M0.099,0.005L0.106,-0.047C0.131,-0.049 0.15,-0.052 0.161,-0.057C0.172,-0.062 0.18,-0.07 0.183,-0.081C0.186,-0.092 0.188,-0.107 0.188,-0.128L0.188,-0.439C0.167,-0.438 0.151,-0.437 0.138,-0.434C0.125,-0.432 0.115,-0.428 0.108,-0.421C0.101,-0.415 0.095,-0.405 0.091,-0.392C0.088,-0.378 0.084,-0.359 0.081,-0.336L0.013,-0.332C0.013,-0.332 0.013,-0.337 0.015,-0.347C0.015,-0.357 0.017,-0.37 0.018,-0.387C0.018,-0.404 0.02,-0.422 0.021,-0.442C0.022,-0.461 0.023,-0.481 0.023,-0.5L0.032,-0.509L0.114,-0.501L0.371,-0.501L0.454,-0.509L0.463,-0.5C0.464,-0.481 0.464,-0.461 0.465,-0.442C0.466,-0.422 0.467,-0.404 0.468,-0.389C0.468,-0.373 0.47,-0.36 0.471,-0.351C0.472,-0.341 0.472,-0.336 0.472,-0.336L0.404,-0.332C0.401,-0.357 0.397,-0.376 0.394,-0.39C0.39,-0.404 0.385,-0.415 0.378,-0.421C0.371,-0.428 0.362,-0.433 0.351,-0.435C0.339,-0.437 0.323,-0.438 0.303,-0.439C0.302,-0.422 0.3,-0.4 0.299,-0.374C0.298,-0.348 0.297,-0.32 0.296,-0.289C0.295,-0.258 0.295,-0.227 0.294,-0.196C0.293,-0.165 0.293,-0.134 0.293,-0.105C0.293,-0.086 0.296,-0.073 0.303,-0.065C0.31,-0.056 0.322,-0.052 0.339,-0.052C0.351,-0.052 0.361,-0.052 0.369,-0.053C0.378,-0.054 0.382,-0.054 0.382,-0.054L0.386,-0.051L0.378,0.004C0.378,0.004 0.373,0.004 0.362,0.003C0.351,0.002 0.338,0.002 0.323,0.002C0.308,0.001 0.292,0.001 0.277,0.001C0.261,0 0.248,-0 0.237,-0C0.225,-0 0.211,0 0.196,0.001C0.181,0.001 0.166,0.002 0.151,0.003C0.136,0.004 0.124,0.004 0.114,0.005C0.104,0.005 0.099,0.005 0.099,0.005Z" style="fill-rule:nonzero;"/>
	</g>
	<g transform="matrix(75,0,0,75,1610.954167,1666.8)">
    </g>
	<g transform="matrix(75,0,0,75,1652.654167,1666.8)">
		<path xmlns="" d="M0.041,0.008L0.047,-0.046C0.07,-0.049 0.085,-0.056 0.093,-0.065C0.102,-0.073 0.106,-0.09 0.106,-0.113L0.107,-0.407C0.107,-0.424 0.105,-0.436 0.102,-0.441C0.098,-0.446 0.091,-0.449 0.08,-0.449C0.075,-0.449 0.07,-0.449 0.064,-0.449C0.058,-0.448 0.055,-0.448 0.055,-0.448L0.05,-0.455L0.057,-0.502C0.057,-0.502 0.062,-0.502 0.071,-0.502C0.08,-0.501 0.093,-0.501 0.108,-0.501C0.123,-0.501 0.14,-0.501 0.157,-0.501C0.174,-0.5 0.191,-0.5 0.206,-0.5C0.245,-0.5 0.281,-0.5 0.312,-0.501C0.343,-0.502 0.371,-0.503 0.395,-0.504C0.419,-0.505 0.439,-0.507 0.456,-0.509L0.462,-0.501C0.462,-0.501 0.461,-0.494 0.459,-0.48C0.456,-0.467 0.454,-0.449 0.451,-0.427C0.448,-0.406 0.445,-0.383 0.443,-0.359L0.37,-0.354C0.37,-0.354 0.37,-0.358 0.371,-0.366C0.372,-0.374 0.372,-0.38 0.372,-0.385C0.372,-0.4 0.37,-0.411 0.365,-0.417C0.36,-0.424 0.351,-0.429 0.336,-0.431C0.321,-0.434 0.298,-0.435 0.267,-0.435C0.247,-0.435 0.235,-0.433 0.23,-0.43C0.225,-0.427 0.223,-0.42 0.222,-0.409L0.217,-0.288L0.293,-0.288C0.303,-0.288 0.316,-0.289 0.331,-0.289C0.345,-0.29 0.359,-0.291 0.371,-0.292C0.384,-0.293 0.39,-0.294 0.39,-0.294L0.396,-0.287L0.384,-0.22C0.384,-0.22 0.378,-0.22 0.365,-0.221C0.353,-0.221 0.339,-0.221 0.323,-0.222C0.306,-0.222 0.291,-0.222 0.277,-0.222C0.264,-0.222 0.253,-0.222 0.241,-0.221C0.231,-0.22 0.221,-0.218 0.214,-0.217C0.213,-0.189 0.212,-0.167 0.212,-0.15L0.212,-0.108C0.212,-0.095 0.213,-0.085 0.215,-0.078C0.217,-0.071 0.222,-0.067 0.23,-0.065C0.237,-0.062 0.249,-0.061 0.265,-0.061C0.3,-0.061 0.326,-0.063 0.343,-0.067C0.359,-0.071 0.371,-0.08 0.379,-0.092C0.386,-0.105 0.391,-0.125 0.395,-0.151L0.462,-0.156L0.469,-0.148C0.469,-0.148 0.468,-0.141 0.465,-0.128C0.462,-0.114 0.459,-0.096 0.456,-0.074C0.452,-0.052 0.449,-0.028 0.446,-0.003L0.438,0.005C0.438,0.005 0.429,0.005 0.413,0.004C0.396,0.003 0.374,0.003 0.348,0.003C0.321,0.002 0.293,0.002 0.264,0.001C0.235,0 0.207,-0 0.182,-0C0.158,-0 0.135,0.001 0.113,0.002C0.091,0.003 0.073,0.005 0.06,0.006C0.048,0.007 0.041,0.008 0.041,0.008Z" style="fill-rule:nonzero;"/>
	</g>
	<g transform="matrix(75,0,0,75,1652.654167,1666.8)">
    </g>
	<g transform="matrix(75,0,0,75,1696.229167,1666.8)">
    </g>
	<text style="font-family:'Alegreya-SemiBold', 'Alegreya';font-weight:600;font-size:75px;" x="608.654px" y="1666.8px">F<tspan xmlns="" x="650.204px 691.304px 715.904px 740.504px 759.254px 802.829px 833.429px 852.179px 882.254px 928.079px 967.679px 986.429px 1188.404px 1207.154px 1464.254px 1483.004px" y="1666.8px 1666.8px 1666.8px 1666.8px 1666.8px 1666.8px 1666.8px 1666.8px 1666.8px 1666.8px 1666.8px 1666.8px 1666.8px 1666.8px 1666.8px 1666.8px">all of the F W S</tspan></text>
	<g transform="matrix(1,0,0,1,-1041.8,326.169141)">
		<text xmlns="" style="font-family:'Alegreya-SemiBold', 'Alegreya';font-weight:600;font-size:58.333px;" x="1648px" y="1088.631px">Late P<tspan xmlns="" x="1794.942px" y="1088.631px">a</tspan>leolithic</text>
		<text xmlns="" style="font-family:'Alegreya-SemiBold', 'Alegreya';font-weight:600;font-size:58.333px;" x="1648px" y="1146.964px">N<tspan xmlns="" x="1689.183px" y="1146.964px">e</tspan>olithic</text>
		<text xmlns="" style="font-family:'Alegreya-SemiBold', 'Alegreya';font-weight:600;font-size:58.333px;" x="1648px" y="1205.298px">E<tspan xmlns="" x="1680.958px" y="1205.298px">g</tspan>yptian P<tspan xmlns="" x="1909.917px 1936.692px 1959.617px" y="1205.298px 1205.298px 1205.298px">yra</tspan>mids</text>
		<g xmlns="" transform="matrix(58.333333,0,0,58.333333,1933.133333,1263.630859)">
        </g>
		<text xmlns="" style="font-family:'Alegreya-SemiBold', 'Alegreya';font-weight:600;font-size:58.333px;" x="1648px" y="1263.631px">J<tspan xmlns="" x="1665.383px" y="1263.631px">e</tspan>sus C<tspan xmlns="" x="1818.1px" y="1263.631px">h</tspan>rist</text>
	</g>
	<path d="M521.2,28.169L521.2,3337.169" style="fill:none;stroke:black;stroke-width:20.83px;"/>
	<path d="M419.2,29.169L519.2,29.169" style="fill:none;stroke:black;stroke-width:20.83px;"/>
	<path d="M417.2,441.169L517.2,441.169" style="fill:none;stroke:black;stroke-width:20.83px;"/>
	<path d="M423.2,819.169L523.2,819.169" style="fill:none;stroke:black;stroke-width:20.83px;"/>
	<path d="M406.2,1225.169L506.2,1225.169" style="fill:none;stroke:black;stroke-width:20.83px;"/>
	<path d="M418.2,2052.169L518.2,2052.169" style="fill:none;stroke:black;stroke-width:20.83px;"/>
	<path d="M419.2,2461.169L519.2,2461.169" style="fill:none;stroke:black;stroke-width:20.83px;"/>
	<path d="M420.2,2944.169L520.2,2944.169" style="fill:none;stroke:black;stroke-width:20.83px;"/>
	<path d="M423.2,3340.169L523.2,3340.169" style="fill:none;stroke:black;stroke-width:20.83px;"/>
	<path d="M920.2,3495.169L895.2,3545.169L870.2,3495.169L895.2,3520.169L920.2,3495.169Z"/>
	<path d="M895.2,3398.169L895.2,3520.169" style="fill:none;stroke:black;stroke-width:8.33px;"/>
	<path d="M289.2,1630.169L511.2,1630.169" style="fill:none;stroke:black;stroke-width:20.83px;"/>
	<g transform="matrix(1,0,0,1,-425.8,-392.830859)">
		<text xmlns="" style="font-family:'Alegreya-SemiBold', 'Alegreya';font-weight:600;font-size:79.167px;" x="1648px" y="1088.631px">O<tspan xmlns="" x="1701.596px" y="1088.631px">n</tspan>e hundr<tspan xmlns="" x="2000.054px" y="1088.631px">e</tspan>d times</text>
		<g xmlns="" transform="matrix(79.166667,0,0,79.166667,2270.329167,1163.630859)">
        </g>
		<text xmlns="" style="font-family:'Alegreya-SemiBold', 'Alegreya';font-weight:600;font-size:79.167px;" x="1648px" y="1163.631px">the pr<tspan xmlns="" x="1841.008px 1877.267px 1910.042px" y="1163.631px 1163.631px 1163.631px">ece</tspan>ding sc<tspan xmlns="" x="2175.804px" y="1163.631px">a</tspan>le</text>
	</g>
	<g transform="matrix(0,-1,1,0,-221.570443,3876.327083)">
		<text xmlns="" style="font-family:'Alegreya-SemiBold', 'Alegreya';font-weight:600;font-size:91.667px;" x="1616.831px" y="1088.631px">F<tspan xmlns="" x="1663.215px" y="1088.631px">i</tspan>rst M<tspan xmlns="" x="1886.606px" y="1088.631px">e</tspan>n in</text>
		<g xmlns="" transform="matrix(91.666667,0,0,91.666667,1980.564583,1163.630859)">
        </g>
		<text xmlns="" style="font-family:'Alegreya-SemiBold', 'Alegreya';font-weight:600;font-size:91.667px;" x="1710.24px" y="1163.631px">E<tspan xmlns="" x="1762.948px 1801.998px" y="1163.631px 1163.631px">cl</tspan>ipse</text>
	</g>
	<g transform="matrix(0,-1,1,0,-4994.897526,4677.756641)">
		<g xmlns="" transform="matrix(91.666667,0,0,91.666667,2067.064974,5924.957943)">
        </g>
		<text xmlns="" style="font-family:'Alegreya-SemiBold', 'Alegreya';font-weight:600;font-size:91.667px;" x="1306.598px" y="5924.958px">F<tspan xmlns="" x="1352.982px" y="5924.958px">i</tspan>rst M<tspan xmlns="" x="1576.373px" y="5924.958px">e</tspan>n in  E<tspan xmlns="" x="1849.448px 1888.498px" y="5924.958px 5924.958px">cl</tspan>ipse</text>
	</g>
	<g transform="matrix(1,0,0,1,-423.8,-219.830859)">
		<text xmlns="" style="font-family:'Alegreya-SemiBold', 'Alegreya';font-weight:600;font-size:79.167px;" x="1648px" y="1088.631px">D<tspan xmlns="" x="1702.862px" y="1088.631px">o</tspan>ubtless e<tspan xmlns="" x="2023.804px 2062.596px 2093.708px" y="1088.631px 1088.631px 1088.631px">xre</tspan>me<tspan xmlns="" x="2232.25px" y="1088.631px">l</tspan>y</text>
		<g xmlns="" transform="matrix(79.166667,0,0,79.166667,2141.64375,1163.630859)">
        </g>
		<text xmlns="" style="font-family:'Alegreya-SemiBold', 'Alegreya';font-weight:600;font-size:79.167px;" x="1795.369px" y="1163.631px">inac<tspan xmlns="" x="1933.119px" y="1163.631px">c</tspan>ur<tspan xmlns="" x="2041.34px" y="1163.631px">a</tspan>te</text>
	</g>
</svg>
